<svg width="24" height="24" viewBox="0 0 24 24" fill="none" xmlns="http://www.w3.org/2000/svg">
<path fill-rule="evenodd" clip-rule="evenodd" d="M13.4276 2.49926C14.0589 2.26992 14.6852 2.15031 15.3136 2.35473C15.6243 2.45581 15.9145 2.61145 16.1706 2.81434C16.6874 3.22377 16.9345 3.80766 17.0925 4.45693C17.2461 5.0878 17.3434 5.9088 17.4622 6.91172L17.5172 7.37537C17.5901 7.99119 17.6162 8.1536 17.6753 8.29383C17.6944 8.33913 17.7161 8.38327 17.7404 8.42601C17.8156 8.55832 17.9285 8.67797 18.3722 9.11113L19.1766 9.89627C19.9625 10.6633 20.2096 11.8277 19.8031 12.8478C19.1897 14.3869 17.3538 15.0239 15.9189 14.1955L14.0229 13.1008L11.5545 17.737C11.426 17.9782 11.3469 18.1268 11.2586 18.2714C11.0971 18.536 10.9144 18.7871 10.7124 19.0222C10.602 19.1508 10.485 19.2718 10.295 19.4683L10.261 19.5035C9.36212 20.4331 8.66579 21.1532 8.12476 21.6566C7.8517 21.9107 7.60125 22.1256 7.37074 22.2904C7.14774 22.4498 6.89589 22.5973 6.62242 22.6653C5.18618 23.0223 3.72494 22.1787 3.31603 20.7563C3.23817 20.4855 3.23999 20.1936 3.26653 19.9208C3.29397 19.6388 3.35489 19.3144 3.43837 18.9509C3.6038 18.2307 3.87931 17.2676 4.23496 16.0243L4.24842 15.9772C4.32357 15.7145 4.36988 15.5526 4.42597 15.3927C4.5286 15.1002 4.65472 14.8165 4.80309 14.5443C4.88418 14.3956 4.97333 14.2528 5.118 14.021L7.89884 9.56505L6.00285 8.4704C4.568 7.64199 4.20172 5.7336 5.22791 4.43284C5.90803 3.57073 7.04006 3.20252 8.09721 3.49956L9.10017 3.78137C9.70701 3.95187 9.87 3.99044 10.0237 3.98892C10.0965 3.9882 10.1691 3.98112 10.2406 3.96777C10.3916 3.93959 10.5461 3.86931 11.114 3.58203L11.1581 3.55974C12.0686 3.09911 12.8129 2.72259 13.4276 2.49926ZM13.9398 3.9091C13.4202 4.0979 12.7565 4.43216 11.7911 4.92052C11.7646 4.93393 11.7384 4.94719 11.7126 4.96029C11.2605 5.18935 10.9044 5.36979 10.5158 5.44231C10.3584 5.47169 10.1987 5.48726 10.0386 5.48884C9.64333 5.49276 9.26176 5.38526 8.77795 5.24896C8.75044 5.24121 8.72261 5.23337 8.69442 5.22545L7.69146 4.94364C7.21769 4.81052 6.71036 4.97553 6.40555 5.36189C5.94566 5.94484 6.10981 6.8001 6.75285 7.17136L16.6689 12.8964C17.312 13.2677 18.1347 12.9822 18.4096 12.2925C18.5918 11.8353 18.4811 11.3134 18.1289 10.9697L17.3245 10.1846C17.3039 10.1645 17.2836 10.1447 17.2635 10.1251C16.9091 9.77963 16.6294 9.507 16.4362 9.16704C16.3828 9.07301 16.335 8.97591 16.293 8.87625C16.1412 8.51592 16.0955 8.12801 16.0376 7.63646C16.0343 7.6086 16.031 7.58042 16.0276 7.55189L15.9785 7.13752C15.8524 6.07321 15.7646 5.34353 15.6351 4.81174C15.5076 4.28804 15.3693 4.09322 15.2391 3.99006C15.1227 3.89784 14.9908 3.82709 14.8496 3.78115C14.693 3.73022 14.4528 3.72272 13.9398 3.9091ZM9.19864 10.3155L6.40296 14.7952C6.24211 15.0529 6.17757 15.1569 6.12011 15.2623C6.01045 15.4635 5.91723 15.6732 5.84137 15.8894C5.80163 16.0026 5.76768 16.1202 5.68412 16.4123C5.32004 17.6851 5.05575 18.6099 4.90031 19.2867C4.82282 19.6241 4.77787 19.877 4.75949 20.066C4.75042 20.1593 4.74877 20.2277 4.75081 20.2765C4.75277 20.323 4.7577 20.3421 4.7577 20.3421C4.94355 20.9885 5.60758 21.3718 6.26036 21.2096C6.26036 21.2096 6.27852 21.2048 6.32058 21.1828C6.36383 21.1602 6.4223 21.1245 6.49849 21.0701C6.65298 20.9596 6.84957 20.7942 7.103 20.5584C7.61138 20.0854 8.28019 19.3941 9.20038 18.4424C9.41157 18.224 9.49642 18.1358 9.57465 18.0448C9.72395 17.871 9.85896 17.6854 9.97834 17.4899C10.0409 17.3874 10.0987 17.2795 10.2415 17.0113L12.7231 12.3504L9.19864 10.3155Z" fill="#2D264B"/>
</svg>
