<svg width="24" height="24" viewBox="0 0 24 24" fill="none" xmlns="http://www.w3.org/2000/svg">
<path fill-rule="evenodd" clip-rule="evenodd" d="M14.0227 4.7226L14.1127 4.7746C14.8909 5.22381 15.5397 5.5984 16.0148 5.96504C16.5163 6.35204 16.9143 6.79623 17.0811 7.41842C17.2478 8.0406 17.1252 8.6243 16.8844 9.21019C16.6562 9.76526 16.2816 10.4141 15.8323 11.1922L11.9568 17.9049C11.6599 18.4202 11.4251 18.8276 11.0677 19.1347C10.7104 19.4417 10.2722 19.6125 9.71809 19.8285L9.56835 19.8869C8.54013 20.2887 7.69257 20.6198 6.99851 20.782C6.27263 20.9516 5.57176 20.9727 4.91849 20.5955C4.26522 20.2183 3.93306 19.6008 3.71699 18.8874C3.51039 18.2052 3.37341 17.3057 3.20723 16.2143L3.18297 16.0554C3.09294 15.4675 3.02175 15.0027 3.10899 14.5397C3.11989 14.4818 3.13311 14.4248 3.14848 14.3684C3.25606 13.9733 3.46891 13.6053 3.72947 13.1548L7.60509 6.44218C8.0543 5.66406 8.42889 5.01521 8.79553 4.5401C9.18253 4.03861 9.62672 3.64058 10.2489 3.47387C10.8711 3.30716 11.4548 3.42976 12.0407 3.67056C12.5958 3.8987 13.2446 4.27333 14.0227 4.7226ZM8.50313 7.88674L14.1323 11.1367L10.7089 17.0663C10.3359 17.7123 10.2293 17.8775 10.0902 17.997C9.95108 18.1165 9.77174 18.197 9.07696 18.4685C7.98049 18.8969 7.23373 19.1866 6.65725 19.3213C6.10038 19.4514 5.84769 19.3999 5.66849 19.2965C5.48929 19.193 5.31836 18.9999 5.1526 18.4526C4.981 17.886 4.85857 17.0944 4.68132 15.9306C4.56901 15.1932 4.5491 14.9976 4.58305 14.8174C4.61701 14.6372 4.70673 14.4623 5.07969 13.8163L8.50313 7.88674ZM15.497 8.63997C15.3645 8.9624 15.1618 9.34153 14.8807 9.83679L9.2547 6.58861C9.54308 6.09757 9.77007 5.73249 9.98305 5.4565C10.2675 5.08789 10.4591 4.97046 10.6371 4.92276C10.8152 4.87506 11.0398 4.88095 11.4705 5.05795C11.9213 5.24323 12.4829 5.56563 13.3177 6.04764C14.1526 6.52964 14.7126 6.8548 15.0984 7.15256C15.467 7.43702 15.5845 7.62863 15.6322 7.80664C15.6799 7.98466 15.674 8.20931 15.497 8.63997Z" fill="#2D264B"/>
<path d="M12.6597 20.2509C12.6597 19.8367 12.9955 19.5009 13.4097 19.5009H19.4097C19.8239 19.5009 20.1597 19.8367 20.1597 20.2509C20.1597 20.6651 19.8239 21.0009 19.4097 21.0009H13.4097C12.9955 21.0009 12.6597 20.6651 12.6597 20.2509Z" fill="#2D264B"/>
</svg>
