<svg width="24" height="24" viewBox="0 0 24 24" fill="none" xmlns="http://www.w3.org/2000/svg">
<path d="M17.971 1.75202C18.9784 1.74753 19.6705 1.74558 20.1977 1.80315C20.3691 1.82187 20.5123 1.84598 20.6339 1.87512L10.0054 12.5036C9.71253 12.7965 9.71253 13.2714 10.0054 13.5642C10.2983 13.8571 10.7732 13.8571 11.0661 13.5642L21.6946 2.93579C21.7237 3.05739 21.7478 3.20059 21.7665 3.37193C21.8241 3.89917 21.8221 4.59132 21.8177 5.59868L21.8066 8.08083C21.8047 8.49504 22.139 8.83232 22.5532 8.83416C22.9674 8.83601 23.3047 8.50173 23.3066 8.08752L23.3178 5.56068C23.3221 4.60896 23.3256 3.83113 23.2577 3.20909C23.187 2.56226 23.0314 1.9896 22.6501 1.49682C22.5675 1.39014 22.4785 1.28886 22.3834 1.19352C22.286 1.09575 22.1822 1.00424 22.0729 0.919588C21.5801 0.538226 21.0074 0.382656 20.3606 0.312019C19.7386 0.24409 18.9607 0.247575 18.009 0.251838L15.4822 0.263112C15.0679 0.26496 14.7337 0.602241 14.7355 1.01645C14.7374 1.43066 15.0746 1.76495 15.4888 1.7631L17.971 1.75202Z" fill="#2D264B"/>
<path d="M13.009 3.44193C12.4034 3.43467 11.7363 3.43467 11.0032 3.43467H10.9547C9.11821 3.43466 7.67861 3.43466 6.53648 3.5584C5.37094 3.68468 4.42656 3.947 3.62024 4.53283C3.13209 4.88748 2.70281 5.31676 2.34815 5.80491C1.76232 6.61123 1.50001 7.55561 1.37373 8.72115C1.24999 9.86329 1.24999 11.3029 1.25 13.1394V13.2299C1.24999 15.0665 1.24999 16.5061 1.37373 17.6482C1.50001 18.8137 1.76232 19.7581 2.34815 20.5644C2.70281 21.0526 3.13209 21.4819 3.62024 21.8365C4.42656 22.4223 5.37094 22.6847 6.53648 22.8109C7.67859 22.9347 9.11817 22.9347 10.9547 22.9347H11.0453C12.8818 22.9347 14.3214 22.9347 15.4635 22.8109C16.6291 22.6847 17.5734 22.4223 18.3798 21.8365C18.8679 21.4819 19.2972 21.0526 19.6518 20.5644C20.2377 19.7581 20.5 18.8137 20.6263 17.6482C20.75 16.5061 20.75 15.0665 20.75 13.23V13.1812C20.75 12.4483 20.75 11.7813 20.7427 11.1757C20.7378 10.7615 20.398 10.4298 19.9838 10.4347C19.5696 10.4397 19.2379 10.7795 19.2428 11.1937C19.25 11.7894 19.25 12.448 19.25 13.1847C19.25 15.0762 19.249 16.4347 19.135 17.4866C19.0225 18.5245 18.8074 19.1748 18.4383 19.6828C18.1762 20.0436 17.8589 20.3609 17.4981 20.623C16.9901 20.9921 16.3399 21.2072 15.302 21.3197C14.25 21.4336 12.8916 21.4347 11 21.4347C9.10843 21.4347 7.74999 21.4336 6.69804 21.3197C5.66013 21.2072 5.00992 20.9921 4.50191 20.623C4.14111 20.3609 3.82382 20.0436 3.56168 19.6828C3.19259 19.1748 2.97745 18.5245 2.865 17.4866C2.75103 16.4347 2.75 15.0762 2.75 13.1847C2.75 11.2931 2.75103 9.93467 2.865 8.88272C2.97745 7.84481 3.19259 7.19459 3.56168 6.68659C3.82382 6.32578 4.14111 6.00849 4.50191 5.74635C5.00992 5.37726 5.66013 5.16213 6.69804 5.04967C7.74999 4.9357 9.10843 4.93467 11 4.93467C11.7367 4.93467 12.3952 4.93468 12.991 4.94183C13.4052 4.94679 13.745 4.61505 13.7499 4.20087C13.7549 3.78669 13.4232 3.4469 13.009 3.44193Z" fill="#2D264B"/>
</svg>
