<svg width="24" height="24" viewBox="0 0 24 24" fill="none" xmlns="http://www.w3.org/2000/svg">
<path d="M16.7439 5.29894C16.3567 5.1518 15.9235 5.34641 15.7764 5.73361C15.6292 6.1208 15.8239 6.55397 16.2111 6.70111C16.5718 6.83818 16.9483 7.07042 17.3266 7.44547C17.8083 7.9231 18.1132 8.4466 18.2832 8.99776C18.4052 9.39358 18.8251 9.61551 19.2209 9.49345C19.6167 9.37139 19.8386 8.95157 19.7166 8.55575C19.4729 7.7657 19.037 7.02902 18.3827 6.38027C17.8664 5.86846 17.3146 5.51583 16.7439 5.29894Z" fill="#2D264B"/>
<path fill-rule="evenodd" clip-rule="evenodd" d="M10.8009 3.51263C9.91273 2.9492 8.69663 2.36343 7.34626 2.26457C5.95836 2.16297 4.48046 2.58179 3.1529 3.93563C1.58562 5.53392 1.0939 7.50694 1.29136 9.50271C1.48653 11.4755 2.35186 13.4809 3.50596 15.2579C4.66315 17.0396 6.14134 18.6393 7.6243 19.8008C9.07465 20.9368 10.6527 21.75 11.9999 21.75C13.347 21.75 14.9251 20.9368 16.3754 19.8008C17.8584 18.6393 19.3366 17.0396 20.4938 15.2579C21.6479 13.4809 22.5132 11.4755 22.7084 9.50271C22.9058 7.50695 22.4141 5.53392 20.8468 3.93563C19.5193 2.58181 18.0414 2.16299 16.6535 2.26459C15.3031 2.36344 14.087 2.94921 13.1988 3.51263C12.4984 3.95695 11.5014 3.95695 10.8009 3.51263ZM4.2239 4.98585C5.23053 3.95929 6.27121 3.68989 7.23674 3.76057C8.23981 3.834 9.212 4.28103 9.99745 4.77928C11.1884 5.53473 12.8114 5.53473 14.0023 4.77928C14.7878 4.28104 15.76 3.83402 16.763 3.76059C17.7286 3.6899 18.7692 3.95931 19.7758 4.98585C20.9791 6.21289 21.3774 7.71993 21.2157 9.35503C21.0516 11.0131 20.3084 12.7894 19.2358 14.4409C18.1663 16.0876 16.7995 17.5633 15.4505 18.6199C14.0688 19.7021 12.8277 20.25 11.9999 20.25C11.172 20.25 9.9309 19.7021 8.54924 18.6199C7.20019 17.5633 5.83346 16.0876 4.76393 14.4409C3.69131 12.7894 2.94811 11.0131 2.78407 9.35503C2.6223 7.71993 3.02067 6.21289 4.2239 4.98585Z" fill="#2D264B"/>
</svg>
