<svg width="24" height="24" viewBox="0 0 24 24" fill="none" xmlns="http://www.w3.org/2000/svg">
<path fill-rule="evenodd" clip-rule="evenodd" d="M7.32261 6.9562C9.13092 5.56416 11.7501 6.85326 11.7501 9.13531V11.25L22.0001 11.25C22.4143 11.25 22.7501 11.5857 22.7501 12C22.7501 12.4142 22.4143 12.75 22.0001 12.75L11.7501 12.75V14.8646C11.7501 17.1467 9.13092 18.4358 7.3226 17.0437L3.60132 14.1791C2.1713 13.0782 2.1713 10.9217 3.60132 9.82084L7.32261 6.9562ZM8.2376 8.14481C9.05956 7.51206 10.2501 8.09801 10.2501 9.13531L10.2501 12L10.2501 14.8646C10.2501 15.9019 9.05956 16.4879 8.2376 15.8551L4.51632 12.9905C3.86631 12.4901 3.86631 11.5098 4.51632 11.0094L8.2376 8.14481Z" fill="#2D264B"/>
</svg>
