<svg width="24" height="24" viewBox="0 0 24 24" fill="none" xmlns="http://www.w3.org/2000/svg">
<path fill-rule="evenodd" clip-rule="evenodd" d="M10.75 10.0362L19.25 7.4862V12.4779C18.6233 12.0071 17.8442 11.7282 17 11.7282C14.9289 11.7282 13.25 13.4071 13.25 15.4782C13.25 17.5492 14.9289 19.2282 17 19.2282C19.0711 19.2282 20.75 17.5492 20.75 15.4782V3.47818C20.75 1.97974 19.3001 0.908847 17.8679 1.34952L13.2867 2.75912L11.2445 3.34259C10.0639 3.6799 9.25 4.75896 9.25 5.98678V15.4779C8.62325 15.0071 7.8442 14.7282 7 14.7282C4.92893 14.7282 3.25 16.4071 3.25 18.4782C3.25 20.5492 4.92893 22.2282 7 22.2282C9.07107 22.2282 10.75 20.5492 10.75 18.4782V10.0362ZM18.309 2.78318C18.7766 2.63931 19.25 2.98895 19.25 3.47818V5.92016L10.75 8.47016V5.98678C10.75 5.42868 11.12 4.9382 11.6566 4.78488L13.7133 4.19724L18.309 2.78318ZM17 13.2282C18.2426 13.2282 19.25 14.2355 19.25 15.4782C19.25 16.7208 18.2426 17.7282 17 17.7282C15.7574 17.7282 14.75 16.7208 14.75 15.4782C14.75 14.2355 15.7574 13.2282 17 13.2282ZM7 16.2282C8.24264 16.2282 9.25 17.2355 9.25 18.4782C9.25 19.7208 8.24264 20.7282 7 20.7282C5.75736 20.7282 4.75 19.7208 4.75 18.4782C4.75 17.2355 5.75736 16.2282 7 16.2282Z" fill="#2D264B"/>
</svg>
