<svg width="24" height="24" viewBox="0 0 24 24" fill="none" xmlns="http://www.w3.org/2000/svg">
<path fill-rule="evenodd" clip-rule="evenodd" d="M13.4207 2.28616C12.0871 2.06833 10.7928 2.85164 10.3673 4.13415C10.2814 4.39318 10.2532 4.67327 10.2413 4.96634C10.2295 5.25799 10.2326 5.62395 10.2365 6.07471L10.2371 6.14945C10.2386 6.33718 10.24 6.50025 10.25 6.65105L10.25 14.1477C9.62325 13.6769 8.8442 13.398 8 13.398C5.92893 13.398 4.25 15.0769 4.25 17.148C4.25 19.2191 5.92893 20.898 8 20.898C10.0711 20.898 11.75 19.2191 11.75 17.148L11.75 8.90191C11.8191 8.94007 11.8923 8.9794 11.9704 9.02132L15.3521 10.8397C15.7496 11.0534 16.0725 11.2271 16.3367 11.3527C16.6023 11.479 16.864 11.5847 17.1343 11.6291C18.4585 11.8468 19.7464 11.077 20.1817 9.80769C20.2706 9.54853 20.3015 9.26798 20.316 8.97424C20.3305 8.68211 20.3305 8.31558 20.3305 7.86429L20.3305 7.78824C20.3306 7.47154 20.3307 7.22372 20.2895 6.98751C20.1724 6.31698 19.8108 5.7137 19.2746 5.29437C19.0857 5.14665 18.8671 5.02994 18.5878 4.88076L15.2006 3.07034C14.803 2.85784 14.4803 2.68531 14.2164 2.5605C13.9513 2.43509 13.69 2.33016 13.4207 2.28616ZM11.7401 5.02586C11.7466 5.06561 11.75 5.1064 11.75 5.14799V6.5979C11.7526 6.62499 11.7557 6.64744 11.7596 6.66894C11.8141 6.97131 11.9781 7.243 12.2202 7.43215C12.2921 7.4883 12.3845 7.54091 12.7291 7.7262L16.045 9.50917C16.4642 9.73458 16.7543 9.89034 16.981 9.99813C17.21 10.1071 17.319 10.1394 17.3777 10.149C17.9796 10.248 18.565 9.89805 18.7629 9.32107C18.7822 9.26482 18.8053 9.15355 18.8179 8.90021C18.8303 8.64956 18.8305 8.32027 18.8305 7.84429C18.8305 7.44541 18.8278 7.33698 18.8118 7.24553C18.7586 6.94075 18.5942 6.66653 18.3505 6.47592C18.2774 6.41873 18.183 6.36527 17.8312 6.17724L14.511 4.40254C14.0918 4.1785 13.8016 4.02363 13.575 3.91647C13.3459 3.80809 13.2371 3.77606 13.1789 3.76654C12.5727 3.66753 11.9844 4.02358 11.791 4.60654C11.7724 4.66248 11.7504 4.77344 11.7401 5.02586ZM8 14.898C9.24264 14.898 10.25 15.9053 10.25 17.148C10.25 18.3906 9.24264 19.398 8 19.398C6.75736 19.398 5.75 18.3906 5.75 17.148C5.75 15.9053 6.75736 14.898 8 14.898Z" fill="#2D264B"/>
</svg>
