<svg width="24" height="24" viewBox="0 0 24 24" fill="none" xmlns="http://www.w3.org/2000/svg">
<path fill-rule="evenodd" clip-rule="evenodd" d="M11.8841 7.24997C11.0662 7.2497 10.508 7.24952 10.0293 7.37777C8.73525 7.72453 7.72444 8.73533 7.37769 10.0294C7.24943 10.5081 7.24962 11.0662 7.24989 11.8842V12.1158C7.24962 12.9338 7.24943 13.4919 7.37769 13.9706C7.72444 15.2647 8.73525 16.2755 10.0293 16.6222C10.508 16.7505 11.0662 16.7503 11.8841 16.75H12.1157C12.9337 16.7503 13.4918 16.7505 13.9705 16.6222C15.2646 16.2755 16.2754 15.2647 16.6221 13.9706C16.7504 13.4919 16.7502 12.9338 16.7499 12.1158V11.8842C16.7502 11.0662 16.7504 10.5081 16.6221 10.0294C16.2754 8.73533 15.2646 7.72453 13.9705 7.37777C13.4918 7.24952 12.9337 7.2497 12.1157 7.24997H11.8841ZM10.4176 8.82666C10.6797 8.75644 11.0217 8.75 11.9999 8.75C12.9782 8.75 13.3202 8.75644 13.5823 8.82666C14.3587 9.03471 14.9652 9.6412 15.1732 10.4177C15.2435 10.6797 15.2499 11.0217 15.2499 12C15.2499 12.9783 15.2435 13.3203 15.1732 13.5823C14.9652 14.3588 14.3587 14.9653 13.5823 15.1733C13.3202 15.2436 12.9782 15.25 11.9999 15.25C11.0217 15.25 10.6797 15.2436 10.4176 15.1733C9.64111 14.9653 9.03463 14.3588 8.82658 13.5823C8.75635 13.3203 8.74991 12.9783 8.74991 12C8.74991 11.0217 8.75635 10.6797 8.82658 10.4177C9.03463 9.6412 9.64111 9.03471 10.4176 8.82666Z" fill="#2D264B"/>
<path fill-rule="evenodd" clip-rule="evenodd" d="M12.285 1.03057C12.0951 1.02114 11.9048 1.02114 11.7148 1.03057C10.9814 1.06698 10.3063 1.28007 9.5536 1.62935C8.82088 1.96937 7.96945 2.46095 6.89228 3.08286L6.83127 3.11809C5.7541 3.73999 4.90266 4.23156 4.24182 4.69611C3.56301 5.17329 3.04089 5.65145 2.64268 6.26836C2.53952 6.42816 2.44437 6.59298 2.35755 6.76221C2.0224 7.41553 1.86936 8.10678 1.79551 8.93324C1.72362 9.73781 1.72363 10.721 1.72363 11.9648V12.0352C1.72363 13.279 1.72362 14.2622 1.79551 15.0668C1.86936 15.8932 2.0224 16.5845 2.35755 17.2378C2.44436 17.407 2.53952 17.5718 2.64268 17.7316C3.04089 18.3485 3.56301 18.8267 4.24182 19.3039C4.90263 19.7684 5.75403 20.26 6.83115 20.8818L6.89226 20.9171C7.96944 21.539 8.82087 22.0306 9.5536 22.3706C10.3063 22.7199 10.9814 22.933 11.7148 22.9694C11.9048 22.9789 12.0951 22.9789 12.285 22.9694C13.0184 22.933 13.6936 22.7199 14.4462 22.3706C15.179 22.0306 16.0304 21.539 17.1076 20.9171L17.1686 20.8819C18.2457 20.26 19.0972 19.7684 19.758 19.3039C20.4368 18.8267 20.9589 18.3485 21.3571 17.7316C21.4603 17.5718 21.5555 17.407 21.6423 17.2378C21.9774 16.5845 22.1305 15.8932 22.2043 15.0668C22.2762 14.2622 22.2762 13.2791 22.2762 12.0353V11.9648C22.2762 10.721 22.2762 9.7378 22.2043 8.93324C22.1305 8.10678 21.9774 7.41553 21.6423 6.76221C21.5555 6.59298 21.4603 6.42816 21.3571 6.26836C20.9589 5.65145 20.4368 5.17329 19.758 4.69611C19.0972 4.23156 18.2457 3.73999 17.1686 3.11809L17.1075 3.08286C16.0304 2.46095 15.1789 1.96937 14.4462 1.62935C13.6936 1.28007 13.0184 1.06698 12.285 1.03057ZM11.7892 2.52873C11.9296 2.52176 12.0702 2.52176 12.2107 2.52873C12.6835 2.5522 13.1629 2.68746 13.8148 2.98998C14.4797 3.29854 15.2737 3.75612 16.3881 4.39951C17.5024 5.04291 18.2957 5.50168 18.8954 5.92324C19.4833 6.33654 19.8402 6.68411 20.0969 7.08185C20.1731 7.19997 20.2435 7.32179 20.3076 7.44687C20.5237 7.86809 20.6463 8.35092 20.7103 9.06674C20.7755 9.79686 20.7762 10.7132 20.7762 12C20.7762 13.2868 20.7755 14.2031 20.7103 14.9333C20.6463 15.6491 20.5237 16.1319 20.3076 16.5531C20.2435 16.6782 20.1731 16.8 20.0969 16.9181C19.8402 17.3159 19.4833 17.6635 18.8954 18.0768C18.2957 18.4983 17.5024 18.9571 16.3881 19.6005C15.2737 20.2439 14.4797 20.7014 13.8148 21.01C13.1629 21.3125 12.6835 21.4478 12.2107 21.4713C12.0702 21.4782 11.9296 21.4782 11.7892 21.4713C11.3163 21.4478 10.8369 21.3125 10.185 21.01C9.52009 20.7014 8.72616 20.2439 7.61177 19.6005C6.49738 18.9571 5.70414 18.4983 5.10446 18.0768C4.51653 17.6635 4.15967 17.3159 3.90293 16.9181C3.82668 16.8 3.75635 16.6782 3.69218 16.5531C3.4761 16.1319 3.35352 15.6491 3.28956 14.9333C3.22432 14.2031 3.22363 13.2868 3.22363 12C3.22363 10.7132 3.22432 9.79686 3.28956 9.06674C3.35352 8.35092 3.4761 7.86809 3.69218 7.44687C3.75635 7.32179 3.82668 7.19996 3.90293 7.08185C4.15967 6.68411 4.51653 6.33654 5.10446 5.92324C5.70414 5.50168 6.49738 5.04291 7.61177 4.39951C8.72616 3.75612 9.52009 3.29854 10.185 2.98998C10.8369 2.68746 11.3163 2.5522 11.7892 2.52873Z" fill="#2D264B"/>
</svg>
