<svg width="24" height="24" viewBox="0 0 24 24" fill="none" xmlns="http://www.w3.org/2000/svg">
<path d="M10.7499 8.00006C10.7499 7.58584 10.4141 7.25006 9.99991 7.25006C9.5857 7.25006 9.24991 7.58584 9.24991 8.00006V16.0001C9.24991 16.4143 9.5857 16.7501 9.99991 16.7501C10.4141 16.7501 10.7499 16.4143 10.7499 16.0001L10.7499 8.00006Z" fill="#2D264B"/>
<path d="M14.7499 8.00006C14.7499 7.58584 14.4141 7.25006 13.9999 7.25006C13.5857 7.25006 13.2499 7.58584 13.2499 8.00006V16.0001C13.2499 16.4143 13.5857 16.7501 13.9999 16.7501C14.4141 16.7501 14.7499 16.4143 14.7499 16.0001V8.00006Z" fill="#2D264B"/>
<path fill-rule="evenodd" clip-rule="evenodd" d="M12.285 1.03063C12.0951 1.0212 11.9048 1.0212 11.7148 1.03063C10.9814 1.06704 10.3063 1.28013 9.5536 1.62941C8.82088 1.96944 7.96945 2.46101 6.89228 3.08293L6.83127 3.11815C5.7541 3.74005 4.90266 4.23162 4.24182 4.69617C3.56301 5.17335 3.04089 5.65151 2.64268 6.26842C2.53952 6.42822 2.44437 6.59304 2.35755 6.76227C2.0224 7.41559 1.86936 8.10684 1.79551 8.9333C1.72362 9.73787 1.72363 10.721 1.72363 11.9648V12.0353C1.72363 13.2791 1.72362 14.2622 1.79551 15.0668C1.86936 15.8933 2.0224 16.5845 2.35755 17.2378C2.44436 17.4071 2.53952 17.5719 2.64268 17.7317C3.04089 18.3486 3.56301 18.8268 4.24182 19.3039C4.90263 19.7685 5.75403 20.26 6.83115 20.8819L6.89226 20.9172C7.96944 21.5391 8.82087 22.0307 9.5536 22.3707C10.3063 22.72 10.9814 22.9331 11.7148 22.9695C11.9048 22.9789 12.0951 22.9789 12.285 22.9695C13.0184 22.9331 13.6936 22.72 14.4462 22.3707C15.179 22.0307 16.0304 21.5391 17.1076 20.9172L17.1686 20.8819C18.2457 20.2601 19.0972 19.7685 19.758 19.3039C20.4368 18.8268 20.9589 18.3486 21.3571 17.7317C21.4603 17.5719 21.5555 17.4071 21.6423 17.2378C21.9774 16.5845 22.1305 15.8933 22.2043 15.0668C22.2762 14.2623 22.2762 13.2791 22.2762 12.0353V11.9648C22.2762 10.7211 22.2762 9.73786 22.2043 8.9333C22.1305 8.10684 21.9774 7.41559 21.6423 6.76227C21.5555 6.59304 21.4603 6.42822 21.3571 6.26842C20.9589 5.65151 20.4368 5.17335 19.758 4.69617C19.0972 4.23162 18.2457 3.74005 17.1686 3.11815L17.1075 3.08292C16.0304 2.46101 15.1789 1.96944 14.4462 1.62941C13.6936 1.28013 13.0184 1.06704 12.285 1.03063ZM11.7892 2.52879C11.9296 2.52182 12.0702 2.52182 12.2107 2.52879C12.6835 2.55226 13.1629 2.68753 13.8148 2.99004C14.4797 3.2986 15.2737 3.75618 16.3881 4.39958C17.5024 5.04297 18.2957 5.50174 18.8954 5.9233C19.4833 6.3366 19.8402 6.68417 20.0969 7.08191C20.1731 7.20003 20.2435 7.32185 20.3076 7.44693C20.5237 7.86815 20.6463 8.35098 20.7103 9.0668C20.7755 9.79692 20.7762 10.7133 20.7762 12.0001C20.7762 13.2868 20.7755 14.2032 20.7103 14.9333C20.6463 15.6491 20.5237 16.132 20.3076 16.5532C20.2435 16.6783 20.1731 16.8001 20.0969 16.9182C19.8402 17.3159 19.4833 17.6635 18.8954 18.0768C18.2957 18.4984 17.5024 18.9571 16.3881 19.6005C15.2737 20.2439 14.4797 20.7015 13.8148 21.0101C13.1629 21.3126 12.6835 21.4479 12.2107 21.4713C12.0702 21.4783 11.9296 21.4783 11.7892 21.4713C11.3163 21.4479 10.8369 21.3126 10.185 21.0101C9.52009 20.7015 8.72616 20.2439 7.61177 19.6005C6.49738 18.9571 5.70414 18.4984 5.10446 18.0768C4.51653 17.6635 4.15967 17.3159 3.90293 16.9182C3.82668 16.8001 3.75635 16.6783 3.69218 16.5532C3.4761 16.132 3.35352 15.6491 3.28956 14.9333C3.22432 14.2032 3.22363 13.2868 3.22363 12.0001C3.22363 10.7133 3.22432 9.79692 3.28956 9.0668C3.35352 8.35098 3.4761 7.86815 3.69218 7.44693C3.75635 7.32185 3.82668 7.20002 3.90293 7.08191C4.15967 6.68417 4.51653 6.3366 5.10446 5.9233C5.70414 5.50174 6.49738 5.04297 7.61177 4.39958C8.72616 3.75618 9.52009 3.2986 10.185 2.99004C10.8369 2.68753 11.3163 2.55226 11.7892 2.52879Z" fill="#2D264B"/>
</svg>
