<svg width="24" height="24" viewBox="0 0 24 24" fill="none" xmlns="http://www.w3.org/2000/svg">
<path fill-rule="evenodd" clip-rule="evenodd" d="M9.91078 4.31377C7.42549 4.26882 4.99108 5.42351 3.46804 7.54892C3.24607 7.85867 3.02611 8.23969 2.64549 8.89897L2.6184 8.9459C2.61441 8.95281 2.61039 8.95975 2.60636 8.96672C2.56083 9.04545 2.51355 9.1272 2.47743 9.20691C2.13287 9.96737 2.37348 10.8653 3.05211 11.3516C3.12325 11.4026 3.20506 11.4498 3.28386 11.4952C3.29083 11.4992 3.29778 11.5032 3.3047 11.5072L9.47513 15.0697L5.85013 21.3484C5.64302 21.7071 5.76593 22.1658 6.12465 22.3729C6.48337 22.58 6.94206 22.4571 7.14917 22.0984L10.7742 15.8197L16.9446 19.3822C16.9515 19.3862 16.9585 19.3902 16.9655 19.3942C17.0442 19.4398 17.1259 19.487 17.2056 19.5232C17.9661 19.8677 18.864 19.6271 19.3503 18.9485C19.4013 18.8773 19.4485 18.7955 19.4939 18.7167C19.4979 18.7097 19.5019 18.7028 19.5059 18.6959L19.533 18.649C19.9136 17.9897 20.1336 17.6087 20.2909 17.2616C21.3703 14.8794 21.1527 12.1932 19.8704 10.0631L19.9786 9.87584C21.5664 7.12565 20.6241 3.60901 17.8739 2.02119C15.1237 0.433374 11.6071 1.37565 10.0193 4.12584L9.91078 4.31377ZM11.548 4.51969C12.0282 4.63325 12.503 4.79413 12.9661 5.00393C13.3132 5.1612 13.6942 5.38119 14.3535 5.76184L16.3959 6.94103C17.0551 7.32164 17.4362 7.5416 17.7459 7.76356C18.1587 8.05937 18.5351 8.3898 18.8733 8.7485C19.7633 6.78171 19.0328 4.42234 17.1239 3.32023C15.2149 2.21805 12.8062 2.76525 11.548 4.51969ZM10.2713 5.83263C8.13385 5.66036 5.99414 6.59896 4.68731 8.42264C4.51387 8.66467 4.33266 8.97671 3.91744 9.6959C3.88715 9.74836 3.86914 9.7796 3.85594 9.80341C3.84754 9.81855 3.84331 9.82691 3.84331 9.82691C3.79485 9.93503 3.82896 10.0624 3.925 10.1318C3.925 10.1318 3.93284 10.1369 3.94768 10.1458C3.97102 10.1598 4.00223 10.1779 4.0547 10.2082L10.8746 14.1457L17.6946 18.0832C17.7471 18.1134 17.7783 18.1315 17.8021 18.1447C17.8163 18.1525 17.8231 18.156 17.8252 18.1571C17.9339 18.2063 18.0616 18.1717 18.1311 18.0748C18.1286 18.0783 18.1312 18.0751 18.1445 18.0529C18.1585 18.0296 18.1766 17.9984 18.2069 17.9459C18.6221 17.2267 18.8017 16.9138 18.9246 16.6425C19.8521 14.5955 19.5927 12.2687 18.3694 10.5027C17.9706 9.92697 17.4692 9.41065 16.8722 8.98283C16.6302 8.8094 16.3181 8.62818 15.5989 8.21296L13.6504 7.08796C12.9312 6.67275 12.6182 6.49311 12.347 6.37022C11.6745 6.06553 10.9729 5.88918 10.2713 5.83263Z" fill="#2D264B"/>
</svg>
