<svg width="24" height="24" viewBox="0 0 24 24" fill="none" xmlns="http://www.w3.org/2000/svg">
<path fill-rule="evenodd" clip-rule="evenodd" d="M13.7807 8.61992C13.0836 8.19094 12.5145 7.84067 12.0453 7.60999C11.5737 7.37818 11.0827 7.20334 10.566 7.26124C9.81906 7.34492 9.15595 7.76082 8.73199 8.38284C8.44425 8.80499 8.34355 9.31737 8.29665 9.86224C8.2499 10.4055 8.2499 11.1017 8.24991 11.9641V12.036C8.2499 12.8984 8.2499 13.5946 8.29665 14.1379C8.34355 14.6827 8.44425 15.1951 8.73199 15.6173C9.15595 16.2393 9.81906 16.6552 10.566 16.7389C11.0827 16.7968 11.5737 16.6219 12.0453 16.3901C12.5145 16.1594 13.0836 15.8092 13.7807 15.3802L13.8467 15.3396C14.5444 14.9102 15.1133 14.56 15.5348 14.2427C15.9626 13.9204 16.3336 13.5645 16.5327 13.0878C16.8223 12.3944 16.8223 11.6057 16.5327 10.9123C16.3336 10.4356 15.9626 10.0797 15.5348 9.75746C15.1133 9.44007 14.5444 9.08994 13.8467 8.66057L13.7807 8.61992ZM10.733 8.75191C10.8115 8.74312 10.9808 8.75816 11.3835 8.95612C11.781 9.15153 12.2893 9.46341 13.0279 9.91794C13.7661 10.3723 14.2741 10.6858 14.6324 10.9557C14.9908 11.2256 15.1043 11.3843 15.1486 11.4904C15.2837 11.8139 15.2837 12.1862 15.1486 12.5097C15.1043 12.6158 14.9908 12.7745 14.6324 13.0445C14.2741 13.3143 13.7661 13.6279 13.0279 14.0822C12.2893 14.5367 11.781 14.8486 11.3835 15.044C10.9808 15.242 10.8115 15.257 10.733 15.2482C10.4415 15.2155 10.1612 15.0509 9.97146 14.7725C9.90738 14.6784 9.83218 14.4863 9.79113 14.0093C9.75058 13.5381 9.74991 12.9068 9.74991 12.0001C9.74991 11.0933 9.75058 10.462 9.79113 9.99086C9.83218 9.51381 9.90738 9.32166 9.97146 9.22765C10.1612 8.94923 10.4415 8.78457 10.733 8.75191Z" fill="#2D264B"/>
<path fill-rule="evenodd" clip-rule="evenodd" d="M12.285 1.03063C12.0951 1.0212 11.9048 1.0212 11.7148 1.03063C10.9814 1.06704 10.3063 1.28013 9.5536 1.62941C8.82088 1.96944 7.96945 2.46101 6.89228 3.08293L6.83127 3.11815C5.7541 3.74005 4.90266 4.23162 4.24182 4.69617C3.56301 5.17335 3.04089 5.65151 2.64268 6.26842C2.53952 6.42822 2.44437 6.59304 2.35755 6.76227C2.0224 7.41559 1.86936 8.10684 1.79551 8.9333C1.72362 9.73787 1.72363 10.721 1.72363 11.9648V12.0353C1.72363 13.2791 1.72362 14.2622 1.79551 15.0668C1.86936 15.8933 2.0224 16.5845 2.35755 17.2378C2.44436 17.4071 2.53952 17.5719 2.64268 17.7317C3.04089 18.3486 3.56301 18.8268 4.24182 19.3039C4.90263 19.7685 5.75403 20.26 6.83115 20.8819L6.89226 20.9172C7.96944 21.5391 8.82087 22.0307 9.5536 22.3707C10.3063 22.72 10.9814 22.9331 11.7148 22.9695C11.9048 22.9789 12.0951 22.9789 12.285 22.9695C13.0184 22.9331 13.6936 22.72 14.4462 22.3707C15.179 22.0307 16.0304 21.5391 17.1076 20.9172L17.1686 20.8819C18.2457 20.2601 19.0972 19.7685 19.758 19.3039C20.4368 18.8268 20.9589 18.3486 21.3571 17.7317C21.4603 17.5719 21.5555 17.4071 21.6423 17.2378C21.9774 16.5845 22.1305 15.8933 22.2043 15.0668C22.2762 14.2623 22.2762 13.2791 22.2762 12.0353V11.9648C22.2762 10.7211 22.2762 9.73786 22.2043 8.9333C22.1305 8.10684 21.9774 7.41559 21.6423 6.76227C21.5555 6.59304 21.4603 6.42822 21.3571 6.26842C20.9589 5.65151 20.4368 5.17335 19.758 4.69617C19.0972 4.23162 18.2457 3.74005 17.1686 3.11815L17.1075 3.08292C16.0304 2.46101 15.1789 1.96944 14.4462 1.62941C13.6936 1.28013 13.0184 1.06704 12.285 1.03063ZM11.7892 2.52879C11.9296 2.52182 12.0702 2.52182 12.2107 2.52879C12.6835 2.55226 13.1629 2.68753 13.8148 2.99004C14.4797 3.2986 15.2737 3.75618 16.3881 4.39958C17.5024 5.04297 18.2957 5.50174 18.8954 5.9233C19.4833 6.3366 19.8402 6.68417 20.0969 7.08191C20.1731 7.20003 20.2435 7.32185 20.3076 7.44693C20.5237 7.86815 20.6463 8.35098 20.7103 9.0668C20.7755 9.79692 20.7762 10.7133 20.7762 12.0001C20.7762 13.2868 20.7755 14.2032 20.7103 14.9333C20.6463 15.6491 20.5237 16.132 20.3076 16.5532C20.2435 16.6783 20.1731 16.8001 20.0969 16.9182C19.8402 17.3159 19.4833 17.6635 18.8954 18.0768C18.2957 18.4984 17.5024 18.9571 16.3881 19.6005C15.2737 20.2439 14.4797 20.7015 13.8148 21.0101C13.1629 21.3126 12.6835 21.4479 12.2107 21.4713C12.0702 21.4783 11.9296 21.4783 11.7892 21.4713C11.3163 21.4479 10.8369 21.3126 10.185 21.0101C9.52009 20.7015 8.72616 20.2439 7.61177 19.6005C6.49738 18.9571 5.70414 18.4984 5.10446 18.0768C4.51653 17.6635 4.15967 17.3159 3.90293 16.9182C3.82668 16.8001 3.75635 16.6783 3.69218 16.5532C3.4761 16.132 3.35352 15.6491 3.28956 14.9333C3.22432 14.2032 3.22363 13.2868 3.22363 12.0001C3.22363 10.7133 3.22432 9.79692 3.28956 9.0668C3.35352 8.35098 3.4761 7.86815 3.69218 7.44693C3.75635 7.32185 3.82668 7.20002 3.90293 7.08191C4.15967 6.68417 4.51653 6.3366 5.10446 5.9233C5.70414 5.50174 6.49738 5.04297 7.61177 4.39958C8.72616 3.75618 9.52009 3.2986 10.185 2.99004C10.8369 2.68753 11.3163 2.55226 11.7892 2.52879Z" fill="#2D264B"/>
</svg>
