<svg width="24" height="24" viewBox="0 0 24 24" fill="none" xmlns="http://www.w3.org/2000/svg">
<path d="M18.0001 11C18.0001 11.5522 17.5524 12 17.0001 12C16.4479 12 16.0001 11.5522 16.0001 11C16.0001 10.4477 16.4479 9.99996 17.0001 9.99996C17.5524 9.99996 18.0001 10.4477 18.0001 11Z" fill="#2D264B"/>
<path d="M16.0001 13C16.0001 13.5522 15.5524 14 15.0001 14C14.4479 14 14.0001 13.5522 14.0001 13C14.0001 12.4477 14.4479 12 15.0001 12C15.5524 12 16.0001 12.4477 16.0001 13Z" fill="#2D264B"/>
<path d="M20.0001 13C20.0001 13.5522 19.5524 14 19.0001 14C18.4479 14 18.0001 13.5522 18.0001 13C18.0001 12.4477 18.4479 12 19.0001 12C19.5524 12 20.0001 12.4477 20.0001 13Z" fill="#2D264B"/>
<path d="M18.0001 15C18.0001 15.5522 17.5524 16 17.0001 16C16.4479 16 16.0001 15.5522 16.0001 15C16.0001 14.4477 16.4479 14 17.0001 14C17.5524 14 18.0001 14.4477 18.0001 15Z" fill="#2D264B"/>
<path d="M7.75008 11C7.75008 10.5857 7.41429 10.25 7.00008 10.25C6.58586 10.25 6.25008 10.5857 6.25008 11V12.25H5.00008C4.58586 12.25 4.25008 12.5857 4.25008 13C4.25008 13.4142 4.58586 13.75 5.00008 13.75H6.25008V15C6.25008 15.4142 6.58586 15.75 7.00008 15.75C7.41429 15.75 7.75008 15.4142 7.75008 15V13.75H9.00008C9.41429 13.75 9.75008 13.4142 9.75008 13C9.75008 12.5857 9.41429 12.25 9.00008 12.25H7.75008V11Z" fill="#2D264B"/>
<path fill-rule="evenodd" clip-rule="evenodd" d="M16.7042 3.25815C16.8468 2.86926 16.6472 2.4384 16.2583 2.2958C15.8694 2.15321 15.4385 2.35287 15.2959 2.74177L15.0537 3.40238C14.9071 3.80228 14.5264 4.06814 14.1005 4.06814C12.9101 4.06814 11.8828 4.90256 11.6387 6.06761L11.2926 7.71908C11.2341 7.7092 11.1757 7.69808 11.1175 7.68573C10.6994 7.59696 10.2843 7.41665 9.25896 6.96095L8.72798 6.72495C8.02333 6.41178 7.2608 6.24996 6.4897 6.24996C3.13591 6.24996 0.559666 9.22039 1.03396 12.5405L1.26486 14.1567L2.72114 19.2537C3.1433 20.7313 4.49381 21.75 6.03049 21.75C7.20161 21.75 8.29236 21.1545 8.92565 20.1693L9.30002 19.587C10.5635 17.6215 13.4366 17.6215 14.7001 19.587L14.9291 19.9432C15.653 21.0693 16.8998 21.75 18.2385 21.75C20.1963 21.75 21.8562 20.3103 22.1331 18.3722L22.9662 12.5405C23.4405 9.22039 20.8642 6.24996 17.5105 6.24996C16.7393 6.24996 15.9768 6.41178 15.2722 6.72496L14.7412 6.96095C13.7159 7.41665 13.3008 7.59696 12.8826 7.68573C12.8651 7.68946 12.8475 7.69307 12.8299 7.69657L13.1068 6.37521C13.2053 5.90495 13.62 5.56814 14.1005 5.56814C15.1557 5.56814 16.0987 4.90949 16.462 3.91876L16.7042 3.25815ZM2.51889 12.3283C2.17368 9.91191 4.04873 7.74996 6.4897 7.74996C7.05093 7.74996 7.60591 7.86774 8.11877 8.09567L8.73068 8.36764C9.6497 8.77621 10.2152 9.0276 10.8061 9.15303C11.1644 9.2291 11.5282 9.27054 11.8924 9.27736C12.3284 9.28553 12.7652 9.24409 13.1941 9.15303C13.785 9.0276 14.3504 8.77621 15.2695 8.36764L15.8814 8.09567C16.3942 7.86774 16.9492 7.74996 17.5105 7.74996C19.9514 7.74996 21.8265 9.91191 21.4813 12.3283L20.6482 18.16C20.4769 19.3592 19.4498 20.25 18.2385 20.25C17.4102 20.25 16.6388 19.8288 16.1909 19.1321L15.9619 18.7759C14.1079 15.8919 9.89222 15.8919 8.03825 18.7759L7.66388 19.3582C7.30659 19.914 6.69121 20.25 6.03049 20.25C5.16352 20.25 4.4016 19.6752 4.16342 18.8416L2.73529 13.8432L2.51889 12.3283Z" fill="#2D264B"/>
</svg>
