<svg width="24" height="24" viewBox="0 0 24 24" fill="none" xmlns="http://www.w3.org/2000/svg">
<path d="M13.7211 2.52864C13.4608 2.26829 13.0386 2.26829 12.7783 2.52864C12.5179 2.78899 12.5179 3.2111 12.7783 3.47145L13.6402 4.33337L11.8519 4.33336C10.1319 4.33314 9.1033 4.33301 8.2486 4.61072C6.52345 5.17126 5.17091 6.5238 4.61038 8.24894C4.33267 9.10364 4.3328 10.1322 4.33302 11.8522V12.1478C4.3328 13.8678 4.33267 14.8964 4.61038 15.7511C4.72416 16.1013 5.10026 16.2929 5.45043 16.1792C5.8006 16.0654 5.99223 15.6893 5.87845 15.3391C5.67459 14.7117 5.66637 13.9132 5.66637 12C5.66637 10.0869 5.67459 9.28839 5.87845 8.66097C6.3071 7.34174 7.34139 6.30744 8.66063 5.8788C9.28805 5.67493 10.0865 5.66671 11.9997 5.66671H13.4083L12.5729 6.36289C12.2901 6.5986 12.2518 7.01898 12.4876 7.30183C12.7233 7.58468 13.1436 7.6229 13.4265 7.38719L14.8353 6.21321C15.2012 5.90822 15.4019 5.48055 15.4312 5.04473C15.4621 4.58502 15.3026 4.11012 14.9468 3.75433L13.7211 2.52864Z" fill="#2D264B"/>
<path d="M20.3915 7.80178C20.282 7.45025 19.9083 7.25404 19.5567 7.36354C19.2052 7.47303 19.009 7.84677 19.1185 8.1983C19.3254 8.86266 19.333 9.70648 19.333 11.6981C19.333 13.6896 19.3254 14.5335 19.1185 15.1978C18.6847 16.5904 17.6428 17.6687 16.3308 18.1134C15.7079 18.3245 14.9148 18.3334 12.9997 18.3334H11.6092L12.4711 17.4714C12.7315 17.2111 12.7315 16.789 12.4711 16.5286C12.2108 16.2683 11.7886 16.2683 11.5283 16.5286L10.3026 17.7543C9.94681 18.1101 9.78732 18.585 9.8182 19.0447C9.84748 19.4806 10.0482 19.9082 10.4141 20.2132L11.8229 21.3872C12.1058 21.6229 12.5261 21.5847 12.7618 21.3018C12.9976 21.019 12.9593 20.5986 12.6765 20.3629L11.8411 19.6667L13.1514 19.6667C14.8675 19.667 15.9003 19.6671 16.7588 19.3762C18.4911 18.789 19.8361 17.3775 20.3915 15.5943C20.6667 14.7108 20.6666 13.6463 20.6664 11.8432V11.5529C20.6666 9.74984 20.6667 8.68527 20.3915 7.80178Z" fill="#2D264B"/>
</svg>
