<svg width="24" height="24" viewBox="0 0 24 24" fill="none" xmlns="http://www.w3.org/2000/svg">
<path fill-rule="evenodd" clip-rule="evenodd" d="M17.6775 17.0438C15.8692 18.4359 13.25 17.1468 13.25 14.8647V12.7501L3 12.7501C2.58579 12.7501 2.25 12.4143 2.25 12.0001C2.25 11.5859 2.58579 11.2501 3 11.2501L13.25 11.2501V9.13543C13.25 6.85338 15.8692 5.56428 17.6775 6.95632L21.3988 9.82096C22.8288 10.9218 22.8288 13.0784 21.3988 14.1792L17.6775 17.0438ZM14.75 9.13543C14.75 8.09814 15.9405 7.51218 16.7625 8.14493L20.4838 11.0096C21.1338 11.51 21.1338 12.4902 20.4838 12.9906L16.7625 15.8552C15.9405 16.488 14.75 15.902 14.75 14.8647L14.75 12.0001L14.75 9.13543Z" fill="#2D264B"/>
</svg>
