<svg width="24" height="24" viewBox="0 0 24 24" fill="none" xmlns="http://www.w3.org/2000/svg">
<path d="M12.7499 7.99997C12.7499 7.58576 12.4141 7.24997 11.9999 7.24997C11.5857 7.24997 11.2499 7.58576 11.2499 7.99997V16C11.2499 16.4142 11.5857 16.75 11.9999 16.75C12.4141 16.75 12.7499 16.4142 12.7499 16V7.99997Z" fill="#2D264B"/>
<path d="M9.74994 8.99997C9.74994 8.58576 9.41415 8.24997 8.99994 8.24997C8.58572 8.24997 8.24994 8.58576 8.24994 8.99997L8.24994 15C8.24994 15.4142 8.58572 15.75 8.99994 15.75C9.41415 15.75 9.74994 15.4142 9.74994 15V8.99997Z" fill="#2D264B"/>
<path d="M15.7499 8.99997C15.7499 8.58576 15.4141 8.24997 14.9999 8.24997C14.5857 8.24997 14.2499 8.58576 14.2499 8.99997V15C14.2499 15.4142 14.5857 15.75 14.9999 15.75C15.4141 15.75 15.7499 15.4142 15.7499 15V8.99997Z" fill="#2D264B"/>
<path d="M6.74994 11C6.74994 10.5858 6.41415 10.25 5.99994 10.25C5.58572 10.25 5.24994 10.5858 5.24994 11L5.24994 13C5.24994 13.4142 5.58572 13.75 5.99994 13.75C6.41415 13.75 6.74994 13.4142 6.74994 13L6.74994 11Z" fill="#2D264B"/>
<path d="M18.7499 11C18.7499 10.5858 18.4141 10.25 17.9999 10.25C17.5857 10.25 17.2499 10.5858 17.2499 11V13C17.2499 13.4142 17.5857 13.75 17.9999 13.75C18.4141 13.75 18.7499 13.4142 18.7499 13V11Z" fill="#2D264B"/>
<path fill-rule="evenodd" clip-rule="evenodd" d="M15.0667 1.79557C14.2621 1.72368 13.279 1.72369 12.0352 1.72369H11.9647C10.7209 1.72369 9.73775 1.72368 8.93318 1.79557C8.10672 1.86942 7.41547 2.02246 6.76215 2.35761C6.59292 2.44443 6.4281 2.53959 6.2683 2.64274C5.65139 3.04095 5.17323 3.56307 4.69604 4.24188C4.2315 4.90272 3.73993 5.75416 3.11803 6.83133L3.08281 6.89233C2.4609 7.9695 1.96931 8.82094 1.62929 9.55366C1.28001 10.3063 1.06692 10.9815 1.03051 11.7148C1.02108 11.9048 1.02108 12.0951 1.03051 12.2851C1.06692 13.0185 1.28001 13.6936 1.62929 14.4463C1.96931 15.179 2.46089 16.0304 3.08279 17.1076L3.11801 17.1686C3.73991 18.2458 4.2315 19.0972 4.69604 19.7581C5.17323 20.4369 5.65139 20.959 6.26829 21.3572C6.42809 21.4604 6.59292 21.5555 6.76215 21.6423C7.41546 21.9775 8.10672 22.1305 8.93318 22.2044C9.73774 22.2763 10.7209 22.2763 11.9647 22.2763H12.0351C13.2789 22.2763 14.2621 22.2763 15.0667 22.2044C15.8931 22.1305 16.5844 21.9775 17.2377 21.6423C17.4069 21.5555 17.5718 21.4604 17.7316 21.3572C18.3485 20.959 18.8266 20.4369 19.3038 19.7581C19.7684 19.0972 20.2599 18.2458 20.8818 17.1687L20.9171 17.1076C21.539 16.0304 22.0306 15.179 22.3706 14.4463C22.7199 13.6936 22.9329 13.0185 22.9694 12.2851C22.9788 12.0951 22.9788 11.9048 22.9694 11.7148C22.9329 10.9815 22.7199 10.3063 22.3706 9.55366C22.0306 8.82093 21.539 7.96949 20.917 6.89231L20.8818 6.83127C20.2599 5.75413 19.7684 4.90271 19.3038 4.24188C18.8266 3.56307 18.3485 3.04095 17.7316 2.64274C17.5718 2.53959 17.407 2.44443 17.2377 2.35761C16.5844 2.02246 15.8932 1.86942 15.0667 1.79557ZM7.44681 3.69224C7.86803 3.47616 8.35086 3.35358 9.06668 3.28962C9.7968 3.22438 10.7131 3.22369 11.9999 3.22369C13.2867 3.22369 14.2031 3.22438 14.9332 3.28962C15.649 3.35358 16.1318 3.47616 16.5531 3.69224C16.6781 3.75641 16.8 3.82674 16.9181 3.90299C17.3158 4.15973 17.6634 4.51659 18.0767 5.10452C18.4983 5.70421 18.957 6.49744 19.6004 7.61183C20.2438 8.72622 20.7014 9.52015 21.01 10.1851C21.3125 10.837 21.4477 11.3164 21.4712 11.7892C21.4782 11.9296 21.4782 12.0703 21.4712 12.2107C21.4477 12.6835 21.3125 13.163 21.01 13.8149C20.7014 14.4798 20.2438 15.2737 19.6004 16.3881C18.957 17.5025 18.4983 18.2957 18.0767 18.8954C17.6634 19.4834 17.3158 19.8402 16.9181 20.097C16.8 20.1732 16.6781 20.2435 16.5531 20.3077C16.1318 20.5238 15.649 20.6464 14.9332 20.7103C14.2031 20.7756 13.2867 20.7763 11.9999 20.7763C10.7131 20.7763 9.7968 20.7756 9.06668 20.7103C8.35086 20.6464 7.86803 20.5238 7.44681 20.3077C7.32173 20.2435 7.1999 20.1732 7.08179 20.097C6.68405 19.8402 6.33648 19.4834 5.92318 18.8954C5.50162 18.2957 5.04285 17.5025 4.39945 16.3881C3.75606 15.2737 3.29848 14.4798 2.98992 13.8149C2.6874 13.163 2.55214 12.6835 2.52867 12.2107C2.52169 12.0703 2.52169 11.9296 2.52867 11.7892C2.55214 11.3164 2.6874 10.837 2.98992 10.1851C3.29848 9.52015 3.75606 8.72622 4.39945 7.61183C5.04285 6.49744 5.50162 5.70421 5.92318 5.10452C6.33648 4.51659 6.68405 4.15973 7.08179 3.90299C7.1999 3.82674 7.32173 3.75641 7.44681 3.69224Z" fill="#2D264B"/>
</svg>
