<svg width="24" height="24" viewBox="0 0 24 24" fill="none" xmlns="http://www.w3.org/2000/svg">
<path d="M12.7499 7.99999C12.7499 7.58578 12.4141 7.24999 11.9999 7.24999C11.5857 7.24999 11.2499 7.58578 11.2499 7.99999V16C11.2499 16.4142 11.5857 16.75 11.9999 16.75C12.4141 16.75 12.7499 16.4142 12.7499 16V7.99999Z" fill="#2D264B"/>
<path d="M9.74991 8.99999C9.74991 8.58578 9.41413 8.24999 8.99991 8.24999C8.5857 8.24999 8.24991 8.58578 8.24991 8.99999L8.24991 15C8.24991 15.4142 8.5857 15.75 8.99991 15.75C9.41413 15.75 9.74991 15.4142 9.74991 15L9.74991 8.99999Z" fill="#2D264B"/>
<path d="M15.7499 8.99999C15.7499 8.58578 15.4141 8.24999 14.9999 8.24999C14.5857 8.24999 14.2499 8.58578 14.2499 8.99999V15C14.2499 15.4142 14.5857 15.75 14.9999 15.75C15.4141 15.75 15.7499 15.4142 15.7499 15V8.99999Z" fill="#2D264B"/>
<path d="M6.74991 11C6.74991 10.5858 6.41413 10.25 5.99991 10.25C5.5857 10.25 5.24991 10.5858 5.24991 11L5.24991 13C5.24991 13.4142 5.5857 13.75 5.99991 13.75C6.41413 13.75 6.74991 13.4142 6.74991 13V11Z" fill="#2D264B"/>
<path d="M18.7499 11C18.7499 10.5858 18.4141 10.25 17.9999 10.25C17.5857 10.25 17.2499 10.5858 17.2499 11V13C17.2499 13.4142 17.5857 13.75 17.9999 13.75C18.4141 13.75 18.7499 13.4142 18.7499 13V11Z" fill="#2D264B"/>
<path fill-rule="evenodd" clip-rule="evenodd" d="M12.285 1.03057C12.0951 1.02114 11.9048 1.02114 11.7148 1.03057C10.9814 1.06698 10.3063 1.28007 9.5536 1.62935C8.82087 1.96938 7.96944 2.46096 6.89227 3.08287L6.83127 3.11809C5.75409 3.73999 4.90266 4.23156 4.24182 4.69611C3.56301 5.17329 3.04089 5.65145 2.64268 6.26836C2.53952 6.42816 2.44436 6.59298 2.35755 6.76221C2.0224 7.41553 1.86936 8.10678 1.79551 8.93324C1.72362 9.73781 1.72363 10.721 1.72363 11.9648V12.0352C1.72363 13.279 1.72362 14.2622 1.79551 15.0668C1.86936 15.8932 2.0224 16.5845 2.35755 17.2378C2.44437 17.407 2.53953 17.5718 2.64268 17.7316C3.04089 18.3485 3.56301 18.8267 4.24182 19.3039C4.90264 19.7684 5.75403 20.26 6.83115 20.8818L6.89224 20.9171C7.96939 21.539 8.82089 22.0306 9.5536 22.3706C10.3063 22.7199 10.9814 22.933 11.7148 22.9694C11.9048 22.9789 12.0951 22.9789 12.285 22.9694C13.0184 22.933 13.6936 22.7199 14.4462 22.3706C15.179 22.0306 16.0304 21.539 17.1076 20.9171L17.1685 20.8819C18.2457 20.26 19.0972 19.7684 19.758 19.3039C20.4368 18.8267 20.9589 18.3485 21.3571 17.7316C21.4603 17.5718 21.5555 17.407 21.6423 17.2378C21.9774 16.5845 22.1305 15.8932 22.2043 15.0668C22.2762 14.2622 22.2762 13.2791 22.2762 12.0353V11.9648C22.2762 10.721 22.2762 9.7378 22.2043 8.93324C22.1305 8.10678 21.9774 7.41552 21.6423 6.76221C21.5555 6.59298 21.4603 6.42816 21.3571 6.26835C20.9589 5.65145 20.4368 5.17329 19.758 4.6961C19.0972 4.23156 18.2457 3.73998 17.1685 3.11808L17.1075 3.08286C16.0304 2.46096 15.1789 1.96937 14.4462 1.62935C13.6936 1.28007 13.0184 1.06698 12.285 1.03057ZM11.7892 2.52873C11.9296 2.52176 12.0702 2.52176 12.2107 2.52873C12.6835 2.5522 13.1629 2.68746 13.8148 2.98998C14.4797 3.29854 15.2737 3.75612 16.3881 4.39951C17.5024 5.04291 18.2957 5.50168 18.8954 5.92324C19.4833 6.33654 19.8402 6.68411 20.0969 7.08185C20.1731 7.19996 20.2435 7.32179 20.3076 7.44687C20.5237 7.86809 20.6463 8.35092 20.7103 9.06674C20.7755 9.79686 20.7762 10.7132 20.7762 12C20.7762 13.2868 20.7755 14.2031 20.7103 14.9333C20.6463 15.6491 20.5237 16.1319 20.3076 16.5531C20.2435 16.6782 20.1731 16.8 20.0969 16.9181C19.8402 17.3159 19.4833 17.6635 18.8954 18.0768C18.2957 18.4983 17.5024 18.9571 16.3881 19.6005C15.2737 20.2439 14.4797 20.7014 13.8148 21.01C13.1629 21.3125 12.6835 21.4478 12.2107 21.4713C12.0702 21.4782 11.9296 21.4782 11.7892 21.4713C11.3163 21.4478 10.8369 21.3125 10.185 21.01C9.52009 20.7014 8.72616 20.2439 7.61177 19.6005C6.49738 18.9571 5.70415 18.4983 5.10446 18.0768C4.51653 17.6635 4.15967 17.3159 3.90293 16.9181C3.82668 16.8 3.75635 16.6782 3.69218 16.5531C3.4761 16.1319 3.35352 15.6491 3.28956 14.9333C3.22432 14.2031 3.22363 13.2868 3.22363 12C3.22363 10.7132 3.22432 9.79686 3.28956 9.06674C3.35352 8.35092 3.4761 7.86809 3.69218 7.44687C3.75635 7.32179 3.82668 7.19996 3.90293 7.08185C4.15967 6.68411 4.51653 6.33654 5.10446 5.92324C5.70414 5.50168 6.49738 5.04291 7.61177 4.39952C8.72616 3.75612 9.52009 3.29854 10.185 2.98998C10.8369 2.68746 11.3163 2.5522 11.7892 2.52873Z" fill="#2D264B"/>
</svg>
