<svg width="24" height="24" viewBox="0 0 24 24" fill="none" xmlns="http://www.w3.org/2000/svg">
<path fill-rule="evenodd" clip-rule="evenodd" d="M14.7695 3.33116C13.9345 3.08777 13.1322 3.42105 12.3627 3.9065C11.5898 4.39407 10.6518 5.16719 9.47816 6.13448L8.43797 6.99177C8.23851 7.15617 8.15785 7.22237 8.07791 7.28194C7.40104 7.78633 6.5893 8.07773 5.74617 8.11899C5.6466 8.12387 5.54225 8.12407 5.28377 8.12407L5.2422 8.12407C5.01938 8.124 4.8477 8.12396 4.69421 8.14113C3.41758 8.28398 2.40992 9.29164 2.26707 10.5683C2.2499 10.7218 2.24994 10.8934 2.25001 11.1163V12.3462C2.24994 12.569 2.2499 12.7407 2.26707 12.8942C2.40992 14.1708 3.41758 15.1785 4.69421 15.3213C4.84771 15.3385 5.01939 15.3384 5.24221 15.3384L5.28377 15.3384C5.54225 15.3384 5.6466 15.3386 5.74617 15.3434C6.5893 15.3847 7.40104 15.6761 8.07791 16.1805C8.15785 16.2401 8.23851 16.3063 8.43797 16.4707L9.47814 17.3279C10.6518 18.2952 11.5898 19.0684 12.3627 19.5559C13.1322 20.0414 13.9345 20.3747 14.7695 20.1313C15.0467 20.0505 15.3094 19.9266 15.548 19.7641C16.2669 19.2745 16.5199 18.4434 16.6347 17.5408C16.75 16.6343 16.75 15.4188 16.75 13.8979V9.56454C16.75 8.04368 16.75 6.8281 16.6347 5.92159C16.5199 5.019 16.2669 4.18792 15.548 3.69833C15.3094 3.53584 15.0467 3.41193 14.7695 3.33116ZM10.388 7.32843C11.6158 6.31644 12.4806 5.60564 13.163 5.17516C13.8584 4.73647 14.1694 4.71865 14.3498 4.77123C14.4758 4.80795 14.5952 4.86427 14.7036 4.93813C14.8589 5.04391 15.043 5.29522 15.1467 6.11086C15.2485 6.91125 15.25 8.03064 15.25 9.6218V13.8406C15.25 15.4318 15.2485 16.5512 15.1467 17.3516C15.043 18.1672 14.8589 18.4185 14.7036 18.5243C14.5952 18.5982 14.4758 18.6545 14.3498 18.6912C14.1694 18.7438 13.8584 18.726 13.163 18.2873C12.4806 17.8568 11.6158 17.146 10.388 16.134L9.37636 15.3003C9.19728 15.1527 9.0871 15.0619 8.9742 14.9777C8.05843 14.2953 6.96019 13.9011 5.81949 13.8452C5.67886 13.8384 5.53609 13.8384 5.30402 13.8384H5.28377C4.99997 13.8384 4.91982 13.8372 4.86101 13.8306C4.28072 13.7657 3.8227 13.3077 3.75777 12.7274C3.75119 12.6686 3.75002 12.5884 3.75002 12.3046V11.1578C3.75002 10.874 3.75119 10.7939 3.75777 10.7351C3.8227 10.1548 4.28072 9.69676 4.86101 9.63183C4.91982 9.62525 4.99997 9.62407 5.28377 9.62407H5.30403C5.53607 9.62408 5.67887 9.62408 5.81949 9.6172C6.96019 9.56138 8.05843 9.16713 8.9742 8.48472C9.08711 8.40058 9.19728 8.30977 9.37636 8.16217L10.388 7.32843Z" fill="#2D264B"/>
<path d="M20.5303 7.20089C20.2375 6.90799 19.7626 6.90799 19.4697 7.20089C19.1768 7.49378 19.1768 7.96865 19.4697 8.26155L19.8697 8.66155C19.8774 8.66926 19.8845 8.6764 19.8912 8.68304C19.9376 8.72949 19.9592 8.75111 19.9769 8.76936C21.5796 10.4187 21.5796 13.0437 19.9769 14.6931C19.9566 14.7139 19.9314 14.7392 19.8697 14.8009L19.4697 15.2009C19.1768 15.4938 19.1768 15.9687 19.4697 16.2615C19.7626 16.5544 20.2375 16.5544 20.5303 16.2615L20.9357 15.8562C20.9425 15.8494 20.9493 15.8426 20.9555 15.8364C20.9989 15.793 21.0275 15.7643 21.0526 15.7384C23.2211 13.507 23.2211 9.95545 21.0526 7.72399C21.0239 7.69444 20.9905 7.66104 20.9357 7.6062L20.5303 7.20089Z" fill="#2D264B"/>
</svg>
