<svg width="24" height="24" viewBox="0 0 24 24" fill="none" xmlns="http://www.w3.org/2000/svg">
<path fill-rule="evenodd" clip-rule="evenodd" d="M17.7695 3.33116C16.9345 3.08777 16.1322 3.42105 15.3627 3.9065C14.5898 4.39407 13.6518 5.16719 12.4782 6.13448L11.438 6.99177C11.2385 7.15617 11.1578 7.22237 11.0779 7.28194C10.401 7.78633 9.5893 8.07773 8.74617 8.11899C8.6466 8.12387 8.54225 8.12407 8.28377 8.12407L8.2422 8.12407C8.01938 8.124 7.8477 8.12396 7.69421 8.14113C6.41758 8.28398 5.40992 9.29164 5.26707 10.5683C5.2499 10.7218 5.24994 10.8934 5.25001 11.1163V12.3462C5.24994 12.569 5.2499 12.7407 5.26707 12.8942C5.40992 14.1708 6.41758 15.1785 7.69421 15.3213C7.84771 15.3385 8.01939 15.3384 8.24221 15.3384L8.28377 15.3384C8.54225 15.3384 8.6466 15.3386 8.74617 15.3434C9.5893 15.3847 10.401 15.6761 11.0779 16.1805C11.1579 16.2401 11.2385 16.3063 11.438 16.4707L12.4781 17.3279C13.6518 18.2952 14.5898 19.0684 15.3627 19.5559C16.1322 20.0414 16.9345 20.3747 17.7695 20.1313C18.0467 20.0505 18.3094 19.9266 18.548 19.7641C19.2669 19.2745 19.5199 18.4434 19.6347 17.5408C19.75 16.6343 19.75 15.4188 19.75 13.8979V9.56454C19.75 8.04368 19.75 6.8281 19.6347 5.92159C19.5199 5.019 19.2669 4.18792 18.548 3.69833C18.3094 3.53584 18.0467 3.41193 17.7695 3.33116ZM13.388 7.32843C14.6158 6.31644 15.4806 5.60564 16.163 5.17516C16.8584 4.73647 17.1694 4.71865 17.3498 4.77123C17.4758 4.80795 17.5952 4.86427 17.7036 4.93813C17.8589 5.04391 18.043 5.29522 18.1467 6.11086C18.2485 6.91125 18.25 8.03064 18.25 9.6218V13.8406C18.25 15.4318 18.2485 16.5512 18.1467 17.3516C18.043 18.1672 17.8589 18.4185 17.7036 18.5243C17.5952 18.5982 17.4758 18.6545 17.3498 18.6912C17.1694 18.7438 16.8584 18.726 16.163 18.2873C15.4806 17.8568 14.6158 17.146 13.388 16.134L12.3764 15.3003C12.1973 15.1527 12.0871 15.0619 11.9742 14.9777C11.0584 14.2953 9.96019 13.9011 8.81949 13.8452C8.67886 13.8384 8.53609 13.8384 8.30402 13.8384H8.28377C7.99997 13.8384 7.91982 13.8372 7.86101 13.8306C7.28072 13.7657 6.8227 13.3077 6.75777 12.7274C6.75119 12.6686 6.75002 12.5884 6.75002 12.3046V11.1578C6.75002 10.874 6.75119 10.7939 6.75777 10.7351C6.8227 10.1548 7.28072 9.69676 7.86101 9.63183C7.91982 9.62525 7.99997 9.62407 8.28377 9.62407H8.30403C8.53607 9.62408 8.67887 9.62408 8.81949 9.6172C9.96019 9.56138 11.0584 9.16713 11.9742 8.48472C12.0871 8.40058 12.1973 8.30977 12.3764 8.16217L13.388 7.32843Z" fill="#2D264B"/>
</svg>
