<svg width="24" height="24" viewBox="0 0 24 24" fill="none" xmlns="http://www.w3.org/2000/svg">
<path fill-rule="evenodd" clip-rule="evenodd" d="M12.7695 3.59996C11.9345 3.35657 11.1322 3.68984 10.3627 4.1753C9.5898 4.66287 8.65177 5.43599 7.47816 6.40328L6.43797 7.26057C6.23851 7.42497 6.15785 7.49117 6.07791 7.55074C5.40104 8.05513 4.5893 8.34653 3.74617 8.38779C3.6466 8.39267 3.54225 8.39287 3.28377 8.39287L3.2422 8.39287C3.01938 8.3928 2.8477 8.39275 2.69421 8.40993C1.41758 8.55278 0.409921 9.56043 0.267071 10.8371C0.249896 10.9906 0.249945 11.1622 0.250007 11.3851V12.615C0.249945 12.8378 0.249896 13.0095 0.267071 13.163C0.409921 14.4396 1.41758 15.4473 2.69421 15.5901C2.84771 15.6073 3.01939 15.6072 3.24221 15.6072L3.28377 15.6072C3.54225 15.6072 3.6466 15.6074 3.74617 15.6122C4.5893 15.6535 5.40104 15.9449 6.07791 16.4493C6.15785 16.5089 6.23851 16.5751 6.43797 16.7395L7.47814 17.5967C8.65176 18.564 9.5898 19.3372 10.3627 19.8247C11.1322 20.3102 11.9345 20.6435 12.7695 20.4001C13.0467 20.3193 13.3094 20.1954 13.548 20.0329C14.2669 19.5433 14.5199 18.7122 14.6347 17.8096C14.75 16.9031 14.75 15.6876 14.75 14.1667V9.83334C14.75 8.31248 14.75 7.0969 14.6347 6.19039C14.5199 5.2878 14.2669 4.45672 13.548 3.96713C13.3094 3.80464 13.0467 3.68073 12.7695 3.59996ZM8.38797 7.59723C9.61585 6.58524 10.4806 5.87444 11.163 5.44396C11.8584 5.00526 12.1694 4.98745 12.3498 5.04003C12.4758 5.07675 12.5952 5.13307 12.7036 5.20693C12.8589 5.31271 13.043 5.56402 13.1467 6.37966C13.2485 7.18005 13.25 8.29944 13.25 9.8906V14.1094C13.25 15.7006 13.2485 16.82 13.1467 17.6204C13.043 18.436 12.8589 18.6873 12.7036 18.7931C12.5952 18.867 12.4758 18.9233 12.3498 18.96C12.1694 19.0126 11.8584 18.9948 11.163 18.5561C10.4806 18.1256 9.61585 17.4148 8.38797 16.4028L7.37636 15.5691C7.19728 15.4215 7.0871 15.3307 6.9742 15.2465C6.05843 14.5641 4.96019 14.1699 3.81949 14.114C3.67886 14.1072 3.53609 14.1072 3.30402 14.1072H3.28377C2.99997 14.1072 2.91982 14.106 2.86101 14.0994C2.28072 14.0345 1.8227 13.5765 1.75777 12.9962C1.75119 12.9374 1.75002 12.8572 1.75002 12.5734V11.4266C1.75002 11.1428 1.75119 11.0627 1.75777 11.0039C1.8227 10.4236 2.28072 9.96556 2.86101 9.90063C2.91982 9.89405 2.99997 9.89287 3.28377 9.89287H3.30403C3.53607 9.89288 3.67887 9.89288 3.81949 9.886C4.96019 9.83018 6.05843 9.43593 6.9742 8.75352C7.08711 8.66938 7.19728 8.57857 7.37636 8.43097L8.38797 7.59723Z" fill="#2D264B"/>
<path d="M18.6517 9.59101C18.3588 9.29811 17.8839 9.29811 17.591 9.59101C17.2981 9.8839 17.2981 10.3588 17.591 10.6517L19.182 12.2427L17.591 13.8336C17.2981 14.1265 17.2981 14.6014 17.591 14.8943C17.8839 15.1872 18.3588 15.1872 18.6517 14.8943L20.2427 13.3033L21.8337 14.8943C22.1266 15.1872 22.6014 15.1872 22.8943 14.8943C23.1872 14.6014 23.1872 14.1265 22.8943 13.8336L21.3034 12.2427L22.8943 10.6517C23.1872 10.3588 23.1872 9.8839 22.8943 9.59101C22.6014 9.29811 22.1266 9.29811 21.8337 9.59101L20.2427 11.182L18.6517 9.59101Z" fill="#2D264B"/>
</svg>
