<svg width="24" height="24" viewBox="0 0 24 24" fill="none" xmlns="http://www.w3.org/2000/svg">
<path d="M21.2802 4.53039C21.5731 4.2375 21.5731 3.76262 21.2802 3.46973C20.9873 3.17684 20.5124 3.17684 20.2195 3.46973L4.21962 19.4697C3.92673 19.7626 3.92673 20.2375 4.21963 20.5304C4.51252 20.8233 4.98739 20.8233 5.28029 20.5304L21.2802 4.53039Z" fill="#2D264B"/>
<path d="M11.138 7.59726C12.3658 6.58527 13.2306 5.87447 13.913 5.44399C14.6084 5.00529 14.9194 4.98748 15.0998 5.04006C15.2258 5.07678 15.3452 5.1331 15.4536 5.20696C15.6089 5.31274 15.793 5.56405 15.8967 6.37969C15.9492 6.79209 15.975 7.28917 15.9877 7.89183C16.0017 8.55506 16.8018 8.88744 17.2709 8.41837C17.413 8.27622 17.4921 8.08257 17.4879 7.88159C17.4743 7.23231 17.4455 6.6684 17.3847 6.19042C17.2699 5.28783 17.0169 4.45675 16.298 3.96716C16.0594 3.80467 15.7967 3.68076 15.5195 3.59999C14.6845 3.3566 13.8822 3.68987 13.1127 4.17533C12.3398 4.6629 11.4018 5.43602 10.2282 6.40331L9.18797 7.2606C8.98851 7.425 8.90785 7.4912 8.82791 7.55077C8.15104 8.05516 7.3393 8.34656 6.49617 8.38782C6.3966 8.3927 6.29225 8.3929 6.03377 8.3929L5.9922 8.3929C5.76938 8.39283 5.5977 8.39278 5.44421 8.40996C4.16758 8.55281 3.15992 9.56046 3.01707 10.8371C2.9999 10.9906 2.99994 11.1623 3.00001 11.3851V12.615C2.99994 12.8378 2.9999 13.0095 3.01707 13.163C3.15992 14.4396 4.16758 15.4473 5.44421 15.5901C5.59771 15.6073 5.76939 15.6073 5.99221 15.6072L6.03377 15.6072C6.29225 15.6072 6.3966 15.6074 6.49617 15.6123C7.3393 15.6535 8.15104 15.9449 8.82791 16.4493C8.96136 16.5488 9.14704 16.5423 9.26472 16.4246L9.76151 15.9278C9.95528 15.734 9.94394 15.4103 9.7242 15.2465C8.80843 14.5641 7.71019 14.1699 6.56949 14.1141C6.42886 14.1072 6.28609 14.1072 6.05402 14.1072H6.03377C5.74997 14.1072 5.66982 14.106 5.61101 14.0994C5.03072 14.0345 4.5727 13.5765 4.50777 12.9962C4.50119 12.9374 4.50002 12.8572 4.50002 12.5734V11.4267C4.50002 11.1429 4.50119 11.0627 4.50777 11.0039C4.5727 10.4236 5.03072 9.96559 5.61101 9.90066C5.66982 9.89408 5.74997 9.8929 6.03377 9.8929H6.05403C6.28607 9.89291 6.42887 9.89291 6.56949 9.88603C7.71019 9.83021 8.80843 9.43596 9.7242 8.75355C9.83711 8.66941 9.94728 8.5786 10.1264 8.431L11.138 7.59726Z" fill="#2D264B"/>
<path d="M11.8122 16.9573C11.5133 16.7125 11.0774 16.7332 10.8043 17.0064L10.2275 17.5831C10.2236 17.587 10.2239 17.5933 10.2281 17.5968C11.4018 18.5641 12.3398 19.3372 13.1127 19.8248C13.8822 20.3102 14.6845 20.6435 15.5195 20.4001C15.7967 20.3193 16.0594 20.1954 16.298 20.0329C17.0169 19.5433 17.2699 18.7123 17.3847 17.8097C17.5 16.9032 17.5 15.6876 17.5 14.1667V12.1212C17.5 11.4531 16.6922 11.1184 16.2197 11.5909C16.079 11.7316 16 11.9223 16 12.1212V14.1095C16 15.7006 15.9985 16.82 15.8967 17.6204C15.793 18.436 15.6089 18.6874 15.4536 18.7931C15.3452 18.867 15.2258 18.9233 15.0998 18.96C14.9194 19.0126 14.6084 18.9948 13.913 18.5561C13.3628 18.209 12.6941 17.6798 11.8122 16.9573Z" fill="#2D264B"/>
</svg>
