<svg width="24" height="24" viewBox="0 0 24 24" fill="none" xmlns="http://www.w3.org/2000/svg">
<path fill-rule="evenodd" clip-rule="evenodd" d="M12.7695 3.33116C11.9345 3.08777 11.1322 3.42105 10.3627 3.9065C9.5898 4.39407 8.65177 5.16719 7.47816 6.13448L6.43797 6.99177C6.23851 7.15617 6.15785 7.22237 6.07791 7.28194C5.40104 7.78633 4.5893 8.07773 3.74617 8.11899C3.6466 8.12387 3.54225 8.12407 3.28377 8.12407L3.2422 8.12407C3.01938 8.124 2.8477 8.12396 2.69421 8.14113C1.41758 8.28398 0.409921 9.29164 0.267071 10.5683C0.249896 10.7218 0.249945 10.8934 0.250007 11.1163V12.3462C0.249945 12.569 0.249896 12.7407 0.267071 12.8942C0.409921 14.1708 1.41758 15.1785 2.69421 15.3213C2.84771 15.3385 3.01939 15.3384 3.24221 15.3384L3.28377 15.3384C3.54225 15.3384 3.6466 15.3386 3.74617 15.3434C4.5893 15.3847 5.40104 15.6761 6.07791 16.1805C6.15785 16.2401 6.23851 16.3063 6.43797 16.4707L7.47814 17.3279C8.65176 18.2952 9.5898 19.0684 10.3627 19.5559C11.1322 20.0414 11.9345 20.3747 12.7695 20.1313C13.0467 20.0505 13.3094 19.9266 13.548 19.7641C14.2669 19.2745 14.5199 18.4434 14.6347 17.5408C14.75 16.6343 14.75 15.4188 14.75 13.8979V9.56454C14.75 8.04368 14.75 6.8281 14.6347 5.92159C14.5199 5.019 14.2669 4.18792 13.548 3.69833C13.3094 3.53584 13.0467 3.41193 12.7695 3.33116ZM8.38797 7.32843C9.61585 6.31644 10.4806 5.60564 11.163 5.17516C11.8584 4.73647 12.1694 4.71865 12.3498 4.77123C12.4758 4.80795 12.5952 4.86427 12.7036 4.93813C12.8589 5.04391 13.043 5.29522 13.1467 6.11086C13.2485 6.91125 13.25 8.03064 13.25 9.6218V13.8406C13.25 15.4318 13.2485 16.5512 13.1467 17.3516C13.043 18.1672 12.8589 18.4185 12.7036 18.5243C12.5952 18.5982 12.4758 18.6545 12.3498 18.6912C12.1694 18.7438 11.8584 18.726 11.163 18.2873C10.4806 17.8568 9.61585 17.146 8.38797 16.134L7.37636 15.3003C7.19728 15.1527 7.0871 15.0619 6.9742 14.9777C6.05843 14.2953 4.96019 13.9011 3.81949 13.8452C3.67886 13.8384 3.53609 13.8384 3.30402 13.8384H3.28377C2.99997 13.8384 2.91982 13.8372 2.86101 13.8306C2.28072 13.7657 1.8227 13.3077 1.75777 12.7274C1.75119 12.6686 1.75002 12.5884 1.75002 12.3046V11.1578C1.75002 10.874 1.75119 10.7939 1.75777 10.7351C1.8227 10.1548 2.28072 9.69676 2.86101 9.63183C2.91982 9.62525 2.99997 9.62407 3.28377 9.62407H3.30403C3.53607 9.62408 3.67887 9.62408 3.81949 9.6172C4.96019 9.56138 6.05843 9.16713 6.9742 8.48472C7.08711 8.40058 7.19728 8.30977 7.37636 8.16217L8.38797 7.32843Z" fill="#2D264B"/>
<path d="M19.5303 4.20089C19.2375 3.90799 18.7626 3.90799 18.4697 4.20089C18.1768 4.49378 18.1768 4.96865 18.4697 5.26155L19.1697 5.96155C19.7784 6.57026 20.0473 6.84021 20.2496 7.08228C22.4986 9.77358 22.4986 13.6889 20.2496 16.3802C20.0473 16.6222 19.7784 16.8922 19.1697 17.5009L18.4697 18.2009C18.1768 18.4938 18.1768 18.9687 18.4697 19.2615C18.7626 19.5544 19.2375 19.5544 19.5303 19.2615L20.266 18.5259C20.8295 17.9624 21.1497 17.6422 21.4006 17.342C24.1149 14.0939 24.1149 9.36855 21.4006 6.12043C21.1497 5.82024 20.8295 5.50003 20.266 4.9365L19.5303 4.20089Z" fill="#2D264B"/>
<path d="M17.5303 7.20089C17.2375 6.90799 16.7626 6.90799 16.4697 7.20089C16.1768 7.49378 16.1768 7.96865 16.4697 8.26155L16.8697 8.66155C16.8774 8.66926 16.8845 8.6764 16.8912 8.68304C16.9376 8.72949 16.9591 8.75111 16.9769 8.76936C18.5796 10.4187 18.5796 13.0437 16.9769 14.6931C16.9566 14.7139 16.9314 14.7392 16.8697 14.8009L16.4697 15.2009C16.1768 15.4938 16.1768 15.9687 16.4697 16.2615C16.7626 16.5544 17.2375 16.5544 17.5303 16.2615L17.9357 15.8562C17.9425 15.8494 17.9493 15.8426 17.9555 15.8364C17.9989 15.793 18.0275 15.7643 18.0526 15.7384C20.2211 13.507 20.2211 9.95545 18.0526 7.72399C18.0239 7.69444 17.9905 7.66104 17.9357 7.6062L17.5303 7.20089Z" fill="#2D264B"/>
</svg>
