<svg width="24" height="24" viewBox="0 0 24 24" fill="none" xmlns="http://www.w3.org/2000/svg">
<path d="M16.2757 4.0636C15.6728 4.00247 15.25 4.49801 15.25 5V19C15.25 19.4142 15.5858 19.75 16 19.75C16.4142 19.75 16.75 19.4142 16.75 19L16.75 5.86345C16.7642 5.87453 16.7787 5.88601 16.7935 5.89789C17.1161 6.15699 17.4997 6.54234 18.0695 7.11724L19.4673 8.52762C19.7589 8.82182 20.2338 8.82394 20.528 8.53235C20.8222 8.24077 20.8243 7.7659 20.5327 7.4717L19.1044 6.03057C18.573 5.49438 18.1298 5.0472 17.7328 4.72835C17.3163 4.39393 16.8787 4.13955 16.3455 4.07159C16.3222 4.06863 16.299 4.06596 16.2757 4.0636Z" fill="#2D264B"/>
<path d="M8.75 5.00001C8.75 4.58579 8.41421 4.25001 8 4.25001C7.58579 4.25001 7.25 4.58579 7.25 5.00001L7.25 17.9363C7.23578 17.9252 7.22128 17.9138 7.20649 17.9019C6.88386 17.6428 6.50033 17.2574 5.93054 16.6825L4.53269 15.2721C4.24111 14.9779 3.76624 14.9758 3.47204 15.2674C3.17784 15.559 3.17573 16.0339 3.46731 16.3281L4.89563 17.7692C5.42702 18.3054 5.87022 18.7526 6.26724 19.0714C6.68367 19.4058 7.12131 19.6602 7.6545 19.7282C8.30512 19.8111 8.75 19.2715 8.75 18.7487L8.75 5.00001Z" fill="#2D264B"/>
</svg>
