<svg width="24" height="24" viewBox="0 0 24 24" fill="none" xmlns="http://www.w3.org/2000/svg">
<path fill-rule="evenodd" clip-rule="evenodd" d="M1.72778 1.81814C1.62731 1.41629 1.2201 1.17198 0.818259 1.27245C0.416415 1.37292 0.172104 1.78013 0.272575 2.18197L1.32442 6.38895L2.30323 10.4729C2.71942 12.2095 3.04702 13.5764 3.43576 14.6383C3.83453 15.7276 4.32353 16.5732 5.10811 17.2216C5.17582 17.2776 5.2448 17.332 5.315 17.3848C6.12846 17.9966 7.06477 18.2751 8.21696 18.409C9.34019 18.5395 10.7458 18.5395 12.5314 18.5395H13.125C14.67 18.5395 15.8863 18.5395 16.8661 18.4405C17.8697 18.339 18.6954 18.1284 19.4386 17.6631C19.791 17.4424 20.1186 17.1841 20.4153 16.8928C21.1141 16.2067 21.5287 15.3453 21.8856 14.2283C22.1482 13.4068 22.3927 12.4016 22.6869 11.175L22.76 10.8701C22.9772 9.96414 23.1562 9.21748 23.2253 8.61259C23.2971 7.9848 23.2678 7.38704 22.9544 6.84125C22.8204 6.60781 22.6528 6.39532 22.457 6.21057C21.9993 5.77862 21.4248 5.61082 20.7976 5.53428C20.1932 5.46054 19.4255 5.46056 18.4938 5.46058L2.63848 5.46058L1.72778 1.81814ZM3.75081 10.077L3.0039 6.96058H18.4452C19.4377 6.96058 20.1132 6.9619 20.6159 7.02324C21.1062 7.08307 21.3072 7.18799 21.4275 7.30149C21.5165 7.38546 21.5927 7.48205 21.6536 7.58816C21.7359 7.73156 21.7911 7.9515 21.735 8.44224C21.684 8.88813 21.5556 9.45505 21.366 10.2501L14.0003 10.2501C13.5861 10.2501 13.2503 10.5858 13.2503 11.0001C13.2503 11.4143 13.5861 11.7501 14.0003 11.7501L21.0046 11.7501C20.8656 12.3166 20.739 12.8118 20.6139 13.2501H17.0003C16.5861 13.2501 16.2503 13.5858 16.2503 14.0001C16.2503 14.4143 16.5861 14.7501 17.0003 14.7501H20.0871C19.8741 15.2128 19.6439 15.5481 19.3645 15.8223C19.1451 16.0377 18.9031 16.2286 18.6425 16.3917C18.1684 16.6886 17.5957 16.859 16.7152 16.9481C15.8195 17.0386 14.679 17.0395 13.0839 17.0395H12.5792C10.7354 17.0395 9.4168 17.0383 8.39013 16.919C7.38244 16.8019 6.73818 16.5783 6.21664 16.186C6.16475 16.147 6.11376 16.1068 6.06372 16.0654C5.56069 15.6497 5.19309 15.0753 4.84434 14.1226C4.48902 13.1521 4.18056 11.8701 3.75081 10.077Z" fill="#2D264B"/>
<path d="M10.474 20.9474C10.474 21.5288 10.0027 22.0001 9.42132 22.0001C8.83997 22.0001 8.36869 21.5288 8.36869 20.9474C8.36869 20.3661 8.83997 19.8948 9.42132 19.8948C10.0027 19.8948 10.474 20.3661 10.474 20.9474Z" fill="#2D264B"/>
<path d="M16.7897 20.9474C16.7897 21.5288 16.3185 22.0001 15.7371 22.0001C15.1558 22.0001 14.6845 21.5288 14.6845 20.9474C14.6845 20.3661 15.1558 19.8948 15.7371 19.8948C16.3185 19.8948 16.7897 20.3661 16.7897 20.9474Z" fill="#2D264B"/>
</svg>
