<svg width="24" height="24" viewBox="0 0 24 24" fill="none" xmlns="http://www.w3.org/2000/svg">
<path d="M6.08204 9.99992C6.08204 9.44764 6.52975 8.99992 7.08204 8.99992H7.33215H8.83215H9.08204C9.63432 8.99992 10.082 9.44764 10.082 9.99992V11.9999C10.082 12.5522 9.63432 12.9999 9.08204 12.9999H7.08204C6.52975 12.9999 6.08204 12.5522 6.08204 11.9999V9.99992Z" fill="#2D264B"/>
<path d="M6.75297 0.66451C6.56773 0.294026 6.11723 0.143858 5.74674 0.3291C5.37626 0.514342 5.22609 0.964846 5.41133 1.33533L5.46412 1.4409C5.64007 1.79281 5.64007 2.20703 5.46412 2.55894L5.41133 2.66451C5.22609 3.03499 5.37626 3.4855 5.74674 3.67074C6.11723 3.85598 6.56773 3.70581 6.75297 3.33533L6.80576 3.22976C7.19286 2.45556 7.19286 1.54428 6.80576 0.770082L6.75297 0.66451Z" fill="#2D264B"/>
<path d="M14.753 0.664511C14.5677 0.294027 14.1172 0.143858 13.7467 0.329099C13.3763 0.51434 13.2261 0.964845 13.4113 1.33533L13.4641 1.4409C13.6401 1.79281 13.6401 2.20703 13.4641 2.55894L13.4113 2.66451C13.2261 3.03499 13.3763 3.48549 13.7467 3.67074C14.1172 3.85598 14.5677 3.70582 14.753 3.33533L14.8058 3.22976C15.1929 2.45556 15.1929 1.54428 14.8058 0.770084L14.753 0.664511Z" fill="#2D264B"/>
<path d="M10.753 1.33533C10.9382 0.964848 10.788 0.514343 10.4176 0.3291C10.0471 0.143858 9.59658 0.294025 9.41133 0.664509L9.35855 0.770082C8.97145 1.54428 8.97145 2.45556 9.35855 3.22976L9.41133 3.33533C9.59658 3.70581 10.0471 3.85598 10.4176 3.67074C10.788 3.4855 10.9382 3.03499 10.753 2.66451L10.7002 2.55894C10.5242 2.20703 10.5242 1.79281 10.7002 1.4409L10.753 1.33533Z" fill="#2D264B"/>
<path fill-rule="evenodd" clip-rule="evenodd" d="M13.9256 4.52134C13.0724 4.24947 12.0065 4.24963 10.2525 4.2499L10.0687 4.24992C9.25569 4.24992 8.59756 4.24992 8.05554 4.26916C7.33567 4.29472 6.76035 4.35511 6.23869 4.52134C4.14018 5.19004 2.60802 6.99869 2.29342 9.17858C2.16551 10.0649 2.34091 11.1163 2.62953 12.8464L3.53048 18.252C3.63937 18.9056 3.70589 19.3048 3.81115 19.6551C4.46489 21.83 6.33759 23.4165 8.59046 23.7037C8.95318 23.75 9.35794 23.75 10.0204 23.7499H10.1438C10.8063 23.75 11.2111 23.75 11.5738 23.7037C13.8267 23.4165 15.6994 21.83 16.3532 19.6551C16.4584 19.3049 16.5249 18.9056 16.6338 18.252L16.7204 17.7326C16.8395 17.7441 16.9602 17.7499 17.0822 17.7499C19.1532 17.7499 20.8322 16.071 20.8322 13.9999C20.8322 12.2072 19.5742 10.7083 17.8928 10.3378C17.9249 9.91524 17.9229 9.53878 17.8709 9.17858C17.5563 6.99869 16.0241 5.19004 13.9256 4.52134ZM10.0822 5.74992C12.0596 5.74992 12.8693 5.75906 13.4702 5.95054C15.0213 6.44479 16.1537 7.78162 16.3863 9.39284C16.4367 9.74223 16.4204 10.1755 16.3227 10.8997C16.2561 11.3938 16.1562 11.9938 16.0272 12.7678L15.1644 17.9447C15.0422 18.6777 14.9909 18.9761 14.9166 19.2233C14.4334 20.8309 13.0493 22.0034 11.3841 22.2158C11.1281 22.2484 10.8253 22.2499 10.0822 22.2499C9.339 22.2499 9.03626 22.2484 8.7802 22.2158C7.11504 22.0034 5.73087 20.8309 5.24767 19.2233C5.17337 18.9761 5.12213 18.6777 4.99995 17.9447L4.13714 12.7678C3.81205 10.8172 3.68795 10.017 3.77804 9.39284C4.01057 7.78162 5.14304 6.44479 6.69411 5.95054C6.87055 5.89431 7.07324 5.8523 7.33215 5.82181L7.33215 8.99992H7.50037C7.50037 8.99992 7.58615 8.99992 8.00037 8.99992C8.41458 8.99992 8.50037 8.99992 8.50037 8.99992H8.83215L8.83215 5.75345C9.19337 5.74996 9.60508 5.74992 10.0822 5.74992ZM17.0822 16.2499C17.0438 16.2499 17.0058 16.249 16.968 16.2471L17.5087 13.003C17.5805 12.5717 17.645 12.1848 17.7002 11.8359C18.6423 12.1044 19.3322 12.9716 19.3322 13.9999C19.3322 15.2426 18.3248 16.2499 17.0822 16.2499Z" fill="#2D264B"/>
</svg>
