<svg width="24" height="24" viewBox="0 0 24 24" fill="none" xmlns="http://www.w3.org/2000/svg">
<path fill-rule="evenodd" clip-rule="evenodd" d="M15.7796 10.5048C16.3719 9.06644 14.9335 7.62805 13.4951 8.22032L10.8183 9.32257C10.1402 9.60178 9.60169 10.1403 9.32247 10.8184L8.22023 13.4952C7.62795 14.9336 9.06633 16.372 10.5047 15.7797L13.1816 14.6775C13.8597 14.3983 14.3982 13.8598 14.6774 13.1817L15.7796 10.5048ZM14.0663 9.60734C14.2718 9.52273 14.4772 9.72821 14.3926 9.9337L13.2904 12.6106C13.1635 12.9188 12.9187 13.1636 12.6105 13.2905L9.9336 14.3927C9.72812 14.4773 9.52263 14.2719 9.60724 14.0664L10.7095 11.3895C10.8364 11.0813 11.0812 10.8365 11.3894 10.7096L14.0663 9.60734Z" fill="#2D264B"/>
<path fill-rule="evenodd" clip-rule="evenodd" d="M15.0667 1.79564C14.2621 1.72374 13.279 1.72375 12.0352 1.72376H11.9647C10.7209 1.72375 9.73775 1.72374 8.93318 1.79564C8.10672 1.86948 7.41547 2.02252 6.76215 2.35767C6.59292 2.44449 6.4281 2.53965 6.2683 2.6428C5.65139 3.04101 5.17323 3.56314 4.69604 4.24195C4.2315 4.90278 3.73993 5.75422 3.11803 6.83139L3.08281 6.89239C2.4609 7.96956 1.96931 8.821 1.62929 9.55372C1.28001 10.3064 1.06692 10.9815 1.03051 11.7149C1.02108 11.9049 1.02108 12.0952 1.03051 12.2852C1.06692 13.0185 1.28001 13.6937 1.62929 14.4463C1.96931 15.1791 2.46089 16.0305 3.08279 17.1076L3.11801 17.1686C3.73991 18.2458 4.2315 19.0973 4.69604 19.7581C5.17323 20.4369 5.65139 20.9591 6.26829 21.3573C6.42809 21.4604 6.59292 21.5556 6.76215 21.6424C7.41546 21.9775 8.10672 22.1306 8.93318 22.2044C9.73774 22.2763 10.7209 22.2763 11.9647 22.2763H12.0351C13.2789 22.2763 14.2621 22.2763 15.0667 22.2044C15.8931 22.1306 16.5844 21.9775 17.2377 21.6424C17.4069 21.5556 17.5718 21.4604 17.7316 21.3573C18.3485 20.9591 18.8266 20.4369 19.3038 19.7581C19.7684 19.0973 20.2599 18.2459 20.8818 17.1687L20.9171 17.1077C21.539 16.0305 22.0306 15.1791 22.3706 14.4463C22.7199 13.6937 22.9329 13.0185 22.9694 12.2852C22.9788 12.0952 22.9788 11.9049 22.9694 11.7149C22.9329 10.9815 22.7199 10.3064 22.3706 9.55372C22.0306 8.82099 21.539 7.96955 20.917 6.89237L20.8818 6.83133C20.2599 5.75419 19.7684 4.90277 19.3038 4.24195C18.8266 3.56314 18.3485 3.04101 17.7316 2.6428C17.5718 2.53965 17.407 2.44449 17.2377 2.35767C16.5844 2.02252 15.8932 1.86948 15.0667 1.79564ZM7.44681 3.6923C7.86803 3.47622 8.35086 3.35364 9.06668 3.28968C9.7968 3.22444 10.7131 3.22376 11.9999 3.22376C13.2867 3.22376 14.2031 3.22444 14.9332 3.28968C15.649 3.35364 16.1318 3.47622 16.5531 3.6923C16.6781 3.75647 16.8 3.82681 16.9181 3.90305C17.3158 4.15979 17.6634 4.51665 18.0767 5.10458C18.4983 5.70427 18.957 6.4975 19.6004 7.6119C20.2438 8.72629 20.7014 9.52021 21.01 10.1851C21.3125 10.837 21.4477 11.3165 21.4712 11.7893C21.4782 11.9297 21.4782 12.0704 21.4712 12.2108C21.4477 12.6836 21.3125 13.163 21.01 13.8149C20.7014 14.4799 20.2438 15.2738 19.6004 16.3882C18.957 17.5026 18.4983 18.2958 18.0767 18.8955C17.6634 19.4834 17.3158 19.8403 16.9181 20.097C16.8 20.1733 16.6781 20.2436 16.5531 20.3078C16.1318 20.5239 15.649 20.6464 14.9332 20.7104C14.2031 20.7756 13.2867 20.7763 11.9999 20.7763C10.7131 20.7763 9.7968 20.7756 9.06668 20.7104C8.35086 20.6464 7.86803 20.5239 7.44681 20.3078C7.32173 20.2436 7.1999 20.1733 7.08179 20.097C6.68405 19.8403 6.33648 19.4834 5.92318 18.8955C5.50162 18.2958 5.04285 17.5026 4.39945 16.3882C3.75606 15.2738 3.29848 14.4799 2.98992 13.8149C2.6874 13.163 2.55214 12.6836 2.52867 12.2108C2.52169 12.0704 2.52169 11.9297 2.52867 11.7893C2.55214 11.3165 2.6874 10.837 2.98992 10.1851C3.29848 9.52021 3.75606 8.72628 4.39945 7.61189C5.04285 6.4975 5.50162 5.70427 5.92318 5.10458C6.33648 4.51665 6.68405 4.15979 7.08179 3.90305C7.1999 3.82681 7.32173 3.75647 7.44681 3.6923Z" fill="#2D264B"/>
</svg>
