<svg width="24" height="24" viewBox="0 0 24 24" fill="none" xmlns="http://www.w3.org/2000/svg">
<g clip-path="url(#clip0_32_3165)">
<path fill-rule="evenodd" clip-rule="evenodd" d="M20.0907 1.70878C14.7407 0.736069 9.25925 0.736069 3.90932 1.70878C1.79028 2.09406 0.25 3.93965 0.25 6.09342V14.4283C0.25 17.3011 2.78473 19.5136 5.63113 19.1255C7.49602 18.8712 9.37234 18.7291 11.25 18.6992V21.584C10.6256 21.6277 10.0041 21.7259 9.39274 21.8788L7.8181 22.2724C7.41625 22.3729 7.17193 22.7801 7.27239 23.1819C7.37285 23.5838 7.78006 23.8281 8.1819 23.7277L9.75655 23.334C10.493 23.1499 11.2465 23.0578 12 23.0578C12.7535 23.0578 13.507 23.1499 14.2435 23.334L15.8181 23.7277C16.2199 23.8281 16.6271 23.5838 16.7276 23.1819C16.8281 22.7801 16.5837 22.3729 16.1819 22.2724L14.6073 21.8788C13.9959 21.7259 13.3744 21.6277 12.75 21.584V18.6992C14.6277 18.7291 16.504 18.8712 18.3689 19.1255C21.2153 19.5136 23.75 17.3011 23.75 14.4283V6.09342C23.75 3.93965 22.2097 2.09406 20.0907 1.70878ZM4.17764 3.18459C9.35015 2.24413 14.6499 2.24413 19.8224 3.18459C21.2282 3.44019 22.25 4.66458 22.25 6.09342V14.4283C22.25 16.3921 20.5173 17.9046 18.5715 17.6392C16.3911 17.3419 14.1956 17.1932 12 17.1932C9.80444 17.1932 7.60888 17.3419 5.42846 17.6392C3.4827 17.9046 1.75 16.3921 1.75 14.4283V6.09342C1.75 4.66458 2.77185 3.44019 4.17764 3.18459Z" fill="#2D264B"/>
</g>
<defs>
<clipPath id="clip0_32_3165">
<rect width="24" height="24" fill="white"/>
</clipPath>
</defs>
</svg>
