<svg width="24" height="24" viewBox="0 0 24 24" fill="none" xmlns="http://www.w3.org/2000/svg">
<path fill-rule="evenodd" clip-rule="evenodd" d="M12.7501 3C12.7501 2.58579 12.4143 2.25 12.0001 2.25C11.5859 2.25 11.2501 2.58579 11.2501 3L11.2501 13.25H9.13544C6.85338 13.25 5.56428 15.8692 6.95632 17.6775L9.82096 21.3987C10.9218 22.8288 13.0784 22.8288 14.1792 21.3988L17.0438 17.6775C18.4359 15.8692 17.1468 13.25 14.8647 13.25H12.7501L12.7501 3ZM8.14493 16.7625C7.51218 15.9405 8.09814 14.75 9.13544 14.75H11.9951L12.0001 14.75L12.0051 14.75H14.8647C15.902 14.75 16.488 15.9405 15.8552 16.7625L12.9906 20.4838C12.4902 21.1338 11.5099 21.1338 11.0096 20.4838L8.14493 16.7625Z" fill="#2D264B"/>
</svg>
