<svg width="24" height="24" viewBox="0 0 24 24" fill="none" xmlns="http://www.w3.org/2000/svg">
<path d="M7.30312 9.8578C7.30312 9.44359 7.63891 9.1078 8.05312 9.1078H16.0531C16.4673 9.1078 16.8031 9.44359 16.8031 9.8578C16.8031 10.272 16.4673 10.6078 16.0531 10.6078H8.05312C7.63891 10.6078 7.30312 10.272 7.30312 9.8578Z" fill="#2D264B"/>
<path d="M7.30312 13.8578C7.30312 13.4436 7.63891 13.1078 8.05312 13.1078H16.0531C16.4673 13.1078 16.8031 13.4436 16.8031 13.8578C16.8031 14.272 16.4673 14.6078 16.0531 14.6078H8.05312C7.63891 14.6078 7.30312 14.272 7.30312 13.8578Z" fill="#2D264B"/>
<path fill-rule="evenodd" clip-rule="evenodd" d="M4.42228 4.3986C8.62042 0.200466 15.4269 0.200466 19.6251 4.3986C23.8232 8.59674 23.8232 15.4033 19.6251 19.6014C18.3915 20.835 16.4961 21.963 14.3842 22.4682C12.2617 22.9759 9.86483 22.8653 7.70168 21.5286C7.58944 21.4592 7.51758 21.4149 7.46331 21.3832C7.42646 21.3618 7.41008 21.3536 7.40673 21.3519C7.37028 21.3377 7.358 21.3362 7.35693 21.336C7.35521 21.3357 7.34156 21.3336 7.29989 21.3368C7.30718 21.3362 7.29977 21.3359 7.25551 21.3459C7.2085 21.3566 7.14663 21.3725 7.04224 21.3996L7.01575 21.4064C6.40935 21.5636 5.91741 21.6911 5.52139 21.7658C5.12309 21.8409 4.73656 21.881 4.36472 21.8053C3.28346 21.5852 2.43843 20.7402 2.21838 19.659C2.14271 19.2871 2.18277 18.9006 2.25788 18.5023C2.33256 18.1063 2.46007 17.6143 2.61724 17.0079L2.62411 16.9814C2.65118 16.877 2.66712 16.8152 2.67774 16.7682C2.68773 16.724 2.6874 16.7166 2.68684 16.7239C2.69 16.6827 2.68786 16.6689 2.68753 16.6668C2.68722 16.6647 2.68527 16.6517 2.67155 16.6166C2.66985 16.6132 2.66168 16.597 2.64035 16.5606C2.60883 16.5068 2.56465 16.4356 2.49535 16.3241C1.15678 14.1701 1.01745 11.7994 1.51506 9.68213C2.01007 7.57586 3.14261 5.67827 4.42228 4.3986ZM18.5644 5.45926C14.9521 1.84691 9.09529 1.84691 5.48294 5.45926C4.39422 6.54798 3.4044 8.19937 2.97527 10.0253C2.54873 11.8402 2.68348 13.785 3.76938 15.5323C3.77922 15.5482 3.7891 15.564 3.79896 15.5798C3.90237 15.7457 4.00474 15.91 4.06338 16.0572C4.16829 16.3207 4.20414 16.5559 4.18245 16.8386C4.17035 16.9962 4.12772 17.1598 4.08685 17.3166C4.08326 17.3304 4.07968 17.3441 4.07613 17.3578C3.91045 17.997 3.79609 18.4399 3.7319 18.7803C3.66705 19.1241 3.67172 19.2786 3.68825 19.3598C3.78827 19.8513 4.17238 20.2354 4.66386 20.3354C4.7451 20.352 4.89956 20.3566 5.24343 20.2918C5.58382 20.2276 6.02667 20.1132 6.66589 19.9475C6.67958 19.944 6.69333 19.9404 6.70714 19.9368C6.86384 19.896 7.02722 19.8534 7.18433 19.8413C7.46668 19.8194 7.70016 19.8547 7.96345 19.959C8.11036 20.0172 8.27527 20.1194 8.44226 20.2229C8.45824 20.2328 8.47423 20.2427 8.49023 20.2526C10.2369 21.332 12.2036 21.4475 14.0352 21.0093C15.8772 20.5687 17.5264 19.5788 18.5644 18.5407C22.1768 14.9284 22.1768 9.07161 18.5644 5.45926Z" fill="#2D264B"/>
</svg>
