<svg width="24" height="24" viewBox="0 0 24 24" fill="none" xmlns="http://www.w3.org/2000/svg">
<path fill-rule="evenodd" clip-rule="evenodd" d="M11.6713 4.03506C11.3964 5.88852 11.0511 8.7781 12.9193 12.0138C14.7874 15.2495 17.4625 16.3952 19.205 17.084C19.2652 17.1077 19.3253 17.1314 19.3851 17.1549C19.7456 17.2966 20.0927 17.433 20.3621 17.5669C20.5219 17.6463 20.6922 17.7427 20.8398 17.8633C20.9849 17.9818 21.1629 18.1679 21.2469 18.4405C21.4378 19.0597 21.0141 19.5299 20.7544 19.7661C20.4459 20.0467 19.9793 20.3507 19.3768 20.6986C14.2351 23.6671 7.66055 21.9054 4.69202 16.7638C1.72349 11.6221 3.48515 5.04755 8.6268 2.07902C9.22929 1.73117 9.72585 1.4791 10.1232 1.35219C10.4575 1.24539 11.0766 1.11355 11.5174 1.58847C11.7114 1.79752 11.7837 2.04472 11.8137 2.22963C11.8443 2.41773 11.8426 2.61343 11.8315 2.79157C11.8128 3.09181 11.7574 3.4606 11.6999 3.84372C11.6903 3.90719 11.6807 3.97105 11.6713 4.03506ZM10.3184 2.88289C10.0915 2.98323 9.78534 3.14218 9.3768 3.37806C4.95259 5.93237 3.43674 11.5896 5.99106 16.0138C8.54538 20.438 14.2026 21.9538 18.6268 19.3995C19.0353 19.1637 19.3261 18.978 19.5264 18.8317C19.3449 18.7512 19.1211 18.6631 18.8444 18.5542C18.7835 18.5302 18.7199 18.5051 18.6537 18.479C16.8345 17.76 13.7521 16.4563 11.6202 12.7638C9.48835 9.07128 9.90056 5.75002 10.1875 3.81504C10.1979 3.74463 10.208 3.6771 10.2177 3.61231C10.2617 3.31824 10.2973 3.08036 10.3184 2.88289ZM10.7183 2.74797C10.7179 2.74852 10.7111 2.74965 10.6993 2.74971C10.7129 2.74745 10.7188 2.74742 10.7183 2.74797ZM19.8322 18.5684C19.8382 18.5582 19.8425 18.5529 19.8432 18.5527C19.844 18.5526 19.841 18.5577 19.8322 18.5684Z" fill="#2D264B"/>
</svg>
