<svg width="24" height="24" viewBox="0 0 24 24" fill="none" xmlns="http://www.w3.org/2000/svg">
<path d="M10.306 2.93488C10.6842 2.76597 10.8539 2.32244 10.685 1.94423C10.5161 1.56602 10.0726 1.39635 9.69436 1.56525C8.92841 1.90732 8.03947 2.42056 6.89846 3.07933L6.83147 3.11801C5.75429 3.73991 4.90285 4.23148 4.24201 4.69603C3.5632 5.17321 3.04108 5.65138 2.64287 6.26828C2.53972 6.42808 2.44456 6.59291 2.35774 6.76214C1.89269 7.66868 1.77554 8.6577 1.73958 9.97958C1.72832 10.3936 2.05485 10.7384 2.46891 10.7497C2.88297 10.761 3.22776 10.4344 3.23903 10.0204C3.27397 8.73584 3.39006 8.0361 3.69237 7.4468C3.75654 7.32172 3.82687 7.19989 3.90312 7.08178C4.15986 6.68403 4.51672 6.33647 5.10465 5.92317C5.70433 5.50161 6.49757 5.04284 7.61196 4.39944C8.79775 3.71483 9.61954 3.24146 10.306 2.93488Z" fill="#2D264B"/>
<path d="M14.3058 1.56525C13.9276 1.39635 13.4841 1.56602 13.3152 1.94423C13.1463 2.32244 13.316 2.76597 13.6942 2.93488C14.3807 3.24146 15.2025 3.71483 16.3882 4.39944C17.5026 5.04284 18.2959 5.50161 18.8956 5.92317C19.4835 6.33647 19.8403 6.68403 20.0971 7.08178C20.1733 7.19989 20.2437 7.32172 20.3078 7.4468C20.6101 8.0361 20.7262 8.73584 20.7612 10.0204C20.7724 10.4344 21.1172 10.761 21.5313 10.7497C21.9454 10.7384 22.2719 10.3936 22.2606 9.97958C22.2247 8.6577 22.1075 7.66868 21.6425 6.76214C21.5556 6.5929 21.4605 6.42808 21.3573 6.26829C20.9591 5.65138 20.437 5.17322 19.7582 4.69603C19.0974 4.23149 18.2459 3.73993 17.1688 3.11804L17.1017 3.07933C15.9608 2.42057 15.0718 1.90731 14.3058 1.56525Z" fill="#2D264B"/>
<path d="M2.35774 17.2377C1.9824 16.506 1.83368 15.7207 1.77137 14.7499H1C0.585786 14.7499 0.25 14.4141 0.25 13.9999C0.25 13.5857 0.585786 13.2499 1 13.2499H23C23.4142 13.2499 23.75 13.5857 23.75 13.9999C23.75 14.4141 23.4142 14.7499 23 14.7499H22.2288C22.1665 15.7207 22.0178 16.506 21.6425 17.2377C21.5557 17.4069 21.4605 17.5718 21.3573 17.7316C20.9591 18.3485 20.437 18.8266 19.7582 19.3038C19.0974 19.7684 18.2459 20.2599 17.1688 20.8818L17.1018 20.9205C15.9608 21.5792 15.0718 22.0925 14.3058 22.4346C13.9276 22.6035 13.4841 22.4338 13.3152 22.0556C13.1463 21.6774 13.316 21.2339 13.6942 21.065C14.3807 20.7584 15.2025 20.285 16.3882 19.6004C17.5026 18.957 18.2959 18.4982 18.8956 18.0767C19.4835 17.6634 19.8403 17.3158 20.0971 16.9181C20.1733 16.8 20.2437 16.6781 20.3078 16.553C20.5434 16.0939 20.6659 15.5676 20.725 14.7499H3.27517C3.33431 15.5676 3.45681 16.0939 3.69237 16.553C3.75654 16.6781 3.82687 16.8 3.90312 16.9181C4.15986 17.3158 4.51672 17.6634 5.10465 18.0767C5.70433 18.4982 6.49757 18.957 7.61196 19.6004C8.79771 20.285 9.61955 20.7584 10.306 21.065C10.6842 21.2339 10.8539 21.6774 10.685 22.0556C10.5161 22.4338 10.0726 22.6035 9.69436 22.4346C8.92844 22.0925 8.03946 21.5793 6.89852 20.9205L6.83141 20.8818C5.75426 20.2599 4.90284 19.7684 4.24201 19.3038C3.5632 18.8266 3.04108 18.3485 2.64287 17.7316C2.53971 17.5718 2.44455 17.4069 2.35774 17.2377Z" fill="#2D264B"/>
</svg>
