<svg width="24" height="24" viewBox="0 0 24 24" fill="none" xmlns="http://www.w3.org/2000/svg">
<path fill-rule="evenodd" clip-rule="evenodd" d="M21.0278 7.70708C21.639 4.52048 18.8413 1.72287 15.6547 2.334L6.50569 4.08865C4.51685 4.47008 2.9263 5.97552 2.42098 7.93169C1.41207 11.8373 5.03411 15.4067 8.9232 14.263C9.0306 14.2314 9.13038 14.3312 9.0988 14.4386C7.95512 18.3277 11.5245 21.9498 15.4302 20.9409C17.3863 20.4355 18.8918 18.845 19.2732 16.8561L21.0278 7.70708ZM15.9373 3.80716C18.0826 3.39571 19.9661 5.2792 19.5547 7.42456L17.8001 16.5736C17.5287 17.9885 16.4544 19.127 15.055 19.4886C12.2579 20.2111 9.72845 17.6143 10.5379 14.8618C10.9044 13.6154 9.74639 12.4574 8.5 12.824C5.7476 13.6334 3.15074 11.104 3.8733 8.30686C4.23481 6.90743 5.37333 5.83315 6.78822 5.5618L15.9373 3.80716Z" fill="#2D264B"/>
</svg>
