<svg width="24" height="24" viewBox="0 0 24 24" fill="none" xmlns="http://www.w3.org/2000/svg">
<path d="M16.5761 9.4801C16.8413 9.16189 16.7983 8.68897 16.4801 8.4238C16.1619 8.15862 15.689 8.20162 15.4238 8.51982L11.9602 12.6761C11.5895 13.121 11.3618 13.3915 11.1742 13.5609C11.0872 13.6394 11.0356 13.6707 11.0108 13.6827C11.0058 13.6851 11.0022 13.6866 11 13.6874C11 13.6874 11 13.6874 11 13.6874C10.9977 13.6866 10.9941 13.6851 10.9891 13.6827C10.9644 13.6707 10.9128 13.6394 10.8258 13.5609C10.6382 13.3915 10.4105 13.121 10.0397 12.6761L8.57614 10.9198C8.31096 10.6016 7.83804 10.5586 7.51983 10.8238C7.20162 11.089 7.15863 11.5619 7.4238 11.8801L8.9193 13.6747C9.24777 14.069 9.54388 14.4244 9.82048 14.6741C10.1214 14.9459 10.5005 15.1879 11 15.1879C11.4995 15.1879 11.8785 14.9459 12.1795 14.6741C12.4561 14.4244 12.7522 14.069 13.0806 13.6747L16.5761 9.4801Z" fill="#2D264B"/>
<path fill-rule="evenodd" clip-rule="evenodd" d="M15.5643 2.75658C14.5409 -0.829342 9.45899 -0.829342 8.43562 2.75658C8.1088 3.90174 6.93229 4.581 5.77714 4.29145C2.15995 3.38476 -0.381025 7.78586 2.21279 10.4651C3.04112 11.3207 3.04112 12.6792 2.21279 13.5348C-0.381026 16.2141 2.15995 20.6152 5.77714 19.7085C6.93229 19.4189 8.1088 20.0982 8.43562 21.2433C9.45899 24.8293 14.5409 24.8293 15.5643 21.2433C15.8911 20.0982 17.0676 19.4189 18.2228 19.7085C21.84 20.6152 24.381 16.2141 21.7872 13.5348C20.9588 12.6792 20.9588 11.3207 21.7872 10.4651C24.381 7.78586 21.84 3.38476 18.2228 4.29145C17.0676 4.581 15.8911 3.90174 15.5643 2.75658ZM9.87803 3.16823C10.4873 1.03344 13.5127 1.03344 14.1219 3.16823C14.6709 5.09182 16.6471 6.23281 18.5875 5.74644C20.7409 5.20666 22.2536 7.82674 20.7094 9.42175C19.3181 10.859 19.3181 13.141 20.7094 14.5782C22.2536 16.1732 20.7409 18.7933 18.5875 18.2535C16.6471 17.7671 14.6709 18.9081 14.1219 20.8317C13.5127 22.9665 10.4873 22.9665 9.87803 20.8317C9.32906 18.9081 7.3528 17.7671 5.41243 18.2535C3.25904 18.7933 1.74633 16.1732 3.29049 14.5782C4.68189 13.141 4.68189 10.859 3.29049 9.42175C1.74633 7.82674 3.25904 5.20666 5.41243 5.74644C7.3528 6.23281 9.32906 5.09182 9.87803 3.16823Z" fill="#2D264B"/>
</svg>
