<svg width="24" height="24" viewBox="0 0 24 24" fill="none" xmlns="http://www.w3.org/2000/svg">
<g clip-path="url(#clip0_271_2343)">
<path d="M0 8L24 8L24 15.0611C24 18.9279 21.6133 21.1288 17.8674 21.1135C15 21.1288 12.8785 19.8297 12.2983 17.7205L12.1657 17.7205C11.9668 20.059 9.59668 21.9847 6.16574 22C2.48619 21.9847 -5.13752e-07 19.7533 -3.38047e-07 15.7336L0 8ZM1.06077 9.00873L1.06077 15.7336C1.0442 19.0044 3.1326 20.9913 6.16574 20.9913C9.36464 20.9913 11.6685 18.821 11.6685 15.7336L11.6685 9.00873L1.06077 9.00873ZM12.6961 9.00873L12.6961 15.6725C12.7127 18.5917 15.0497 20.1354 17.8674 20.1354C21.0663 20.1354 22.9558 18.2249 22.9724 15.0611L22.9724 9.00873L12.6961 9.00873Z" fill="black"/>
<path d="M7 13C7 14.6569 6.38071 16 5 16C3.61929 16 3 14.6569 3 13C3 11.3431 3.61929 10 5 10C6.38071 10 7 11.3431 7 13Z" fill="black"/>
<path d="M18 13C18 14.6569 17.3807 16 16 16C14.6193 16 14 14.6569 14 13C14 11.3431 14.6193 10 16 10C17.3807 10 18 11.3431 18 13Z" fill="black"/>
<path d="M15 6H18" stroke="black" stroke-linecap="round"/>
<path d="M4 6H7" stroke="black" stroke-linecap="round"/>
</g>
<defs>
<clipPath id="clip0_271_2343">
<rect width="24" height="24" fill="white"/>
</clipPath>
</defs>
</svg>
