<svg width="24" height="24" viewBox="0 0 24 24" fill="none" xmlns="http://www.w3.org/2000/svg">
<path d="M10.0002 13.2501C9.58596 13.2501 9.25018 13.5858 9.25018 14.0001C9.25018 14.4143 9.58596 14.7501 10.0002 14.7501H16.0002C16.4144 14.7501 16.7502 14.4143 16.7502 14.0001C16.7502 13.5858 16.4144 13.2501 16.0002 13.2501H10.0002Z" fill="#2D264B"/>
<path fill-rule="evenodd" clip-rule="evenodd" d="M1.72778 1.81815C1.62732 1.41631 1.22012 1.17199 0.818276 1.27245C0.41643 1.37291 0.172109 1.78011 0.272571 2.18196L1.32431 6.38893L2.30312 10.4729C2.71932 12.2095 3.04692 13.5764 3.43566 14.6383C3.83442 15.7276 4.32343 16.5732 5.108 17.2216C5.17571 17.2776 5.24469 17.332 5.3149 17.3848C6.12835 17.9966 7.06466 18.2751 8.21686 18.409C9.3401 18.5395 10.7457 18.5395 12.5314 18.5395H13.1248C14.6699 18.5395 15.8862 18.5395 16.866 18.4405C17.8696 18.339 18.6953 18.1284 19.4385 17.6631C19.7909 17.4424 20.1185 17.1841 20.4152 16.8928C21.0409 16.2785 21.4382 15.5246 21.7708 14.5723C22.0955 13.6426 22.3789 12.4598 22.739 10.9573L22.7599 10.8701C22.9771 9.96414 23.1561 9.21748 23.2252 8.61259C23.297 7.9848 23.2677 7.38704 22.9543 6.84125C22.8203 6.60782 22.6527 6.39532 22.4569 6.21057C21.9992 5.77862 21.4247 5.61082 20.7975 5.53429C20.1931 5.46054 19.4254 5.46056 18.4937 5.46058L2.63839 5.46058L1.72778 1.81815ZM3.75071 10.077L3.0038 6.96058H18.4451C19.4376 6.96058 20.1131 6.9619 20.6158 7.02324C21.1061 7.08307 21.3071 7.188 21.4274 7.30149C21.5164 7.38547 21.5926 7.48205 21.6535 7.58816C21.7358 7.73156 21.791 7.95151 21.7349 8.44225C21.6774 8.94538 21.5212 9.60263 21.2899 10.5678C20.9182 12.1189 20.6515 13.2279 20.3546 14.0777C20.0628 14.9132 19.7636 15.4305 19.3644 15.8224C19.145 16.0377 18.903 16.2286 18.6424 16.3917C18.1683 16.6886 17.5956 16.859 16.7151 16.9481C15.8194 17.0386 14.6789 17.0395 13.0838 17.0395H12.5791C10.7353 17.0395 9.41669 17.0384 8.39003 16.919C7.38234 16.8019 6.73808 16.5783 6.21654 16.186C6.16465 16.147 6.11366 16.1068 6.06362 16.0654C5.56059 15.6497 5.19299 15.0753 4.84424 14.1226C4.48892 13.1521 4.18045 11.8701 3.75071 10.077Z" fill="#2D264B"/>
<path d="M10.4739 20.9474C10.4739 21.5288 10.0026 22.0001 9.42122 22.0001C8.83987 22.0001 8.36859 21.5288 8.36859 20.9474C8.36859 20.3661 8.83987 19.8948 9.42122 19.8948C10.0026 19.8948 10.4739 20.3661 10.4739 20.9474Z" fill="#2D264B"/>
<path d="M16.7896 20.9474C16.7896 21.5288 16.3184 22.0001 15.737 22.0001C15.1557 22.0001 14.6844 21.5288 14.6844 20.9474C14.6844 20.3661 15.1557 19.8948 15.737 19.8948C16.3184 19.8948 16.7896 20.3661 16.7896 20.9474Z" fill="#2D264B"/>
</svg>
