<svg width="24" height="24" viewBox="0 0 24 24" fill="none" xmlns="http://www.w3.org/2000/svg">
<path d="M11.2503 15C11.2503 14.5858 11.5861 14.25 12.0003 14.25L18.0003 14.25C18.4145 14.25 18.7503 14.5858 18.7503 15C18.7503 15.4142 18.4145 15.75 18.0003 15.75L12.0003 15.75C11.5861 15.75 11.2503 15.4142 11.2503 15Z" fill="#2D264B"/>
<path fill-rule="evenodd" clip-rule="evenodd" d="M19.5863 8.76099C19.2514 7.00204 18.4036 5.32081 17.0443 3.95982C13.4358 0.346725 7.58474 0.346725 3.97618 3.95982C2.87537 5.06202 1.90321 6.69355 1.47804 8.50489C1.0503 10.3272 1.16889 12.3742 2.3242 14.2356C2.38336 14.3309 2.41994 14.3899 2.44579 14.4341C2.45771 14.4545 2.46398 14.4661 2.46663 14.4711C2.46903 14.4775 2.47052 14.4819 2.47139 14.4847C2.47137 14.488 2.47124 14.4936 2.47068 14.5021C2.46997 14.506 2.46832 14.5147 2.46496 14.5295C2.45641 14.5674 2.4434 14.618 2.42025 14.7074L2.41353 14.7334C2.28084 15.2459 2.17178 15.6672 2.10768 16.0076C2.04315 16.3502 2.00581 16.696 2.07445 17.0337C2.27018 17.9967 3.022 18.75 3.98496 18.9462C4.32277 19.015 4.6686 18.9776 5.01089 18.9129C5.35094 18.8487 5.77177 18.7395 6.28363 18.6067L6.30959 18.5999C6.3989 18.5768 6.44944 18.5637 6.48722 18.5552C6.50192 18.5518 6.5105 18.5502 6.51447 18.5495C6.52231 18.5489 6.52766 18.5488 6.53101 18.5487C6.53376 18.5496 6.53793 18.5511 6.54376 18.5532C6.54881 18.5559 6.56054 18.5622 6.58108 18.5742C6.62559 18.6002 6.68512 18.6369 6.78094 18.6962C7.40086 19.0798 8.04607 19.3479 8.69968 19.5177C8.94215 19.8554 9.21483 20.1778 9.51753 20.4808C10.4094 21.3739 11.7717 22.1843 13.2891 22.5478C14.817 22.9137 16.5578 22.8371 18.133 21.8624C18.2094 21.8151 18.2561 21.7863 18.2905 21.7661C18.3179 21.7727 18.3557 21.7824 18.4183 21.7986L18.4435 21.8052C18.8617 21.9137 19.212 22.0046 19.4965 22.0584C19.7832 22.1125 20.0885 22.1473 20.3924 22.0854C21.2375 21.9132 21.8972 21.252 22.069 20.4071C22.1307 20.1034 22.096 19.7981 22.042 19.5112C21.9884 19.2264 21.8976 18.8758 21.7892 18.457L21.7826 18.4318C21.7663 18.3684 21.7565 18.3305 21.75 18.3029C21.7701 18.2687 21.7988 18.2224 21.8461 18.1461C22.8198 16.5774 22.9178 14.8541 22.5593 13.3267C22.2034 11.8103 21.3902 10.445 20.4668 9.52044C20.1886 9.24187 19.8941 8.98867 19.5863 8.76099ZM15.983 5.01982C12.9604 1.99339 8.06013 1.99339 5.03751 5.01982C4.12753 5.93094 3.2978 7.31632 2.93835 8.84766C2.58149 10.368 2.69558 11.9895 3.59867 13.4445C3.60722 13.4583 3.61589 13.4722 3.62462 13.4862C3.71072 13.6244 3.80344 13.7733 3.85721 13.9084C3.95258 14.1482 3.9856 14.3652 3.96588 14.6225C3.95481 14.7671 3.91595 14.9161 3.88182 15.0471C3.87862 15.0593 3.87547 15.0714 3.87238 15.0833C3.73132 15.6282 3.6354 16.0004 3.58176 16.2852C3.52747 16.5735 3.53475 16.6875 3.5444 16.735C3.62042 17.109 3.91215 17.4005 4.28446 17.4764C4.33131 17.4859 4.44478 17.4933 4.7326 17.439C5.01692 17.3853 5.38853 17.2893 5.93279 17.148C5.94471 17.1449 5.95681 17.1418 5.96906 17.1386C6.09968 17.1044 6.2486 17.0655 6.39279 17.0544C6.64984 17.0345 6.86544 17.0671 7.10507 17.1621C7.23992 17.2156 7.38927 17.3083 7.52815 17.3946C7.54228 17.4034 7.55631 17.4121 7.57021 17.4207C7.59754 17.4376 7.62493 17.4542 7.65238 17.4705C6.74814 14.7706 7.3693 11.6714 9.51753 9.52044C11.7439 7.2913 14.988 6.70388 17.7514 7.75716C17.3751 6.75929 16.7858 5.82365 15.983 5.01982ZM18.4798 9.81521C16.0528 8.17382 12.7271 8.4295 10.5789 10.5804C8.45487 12.7071 8.18062 15.987 9.75916 18.4104C9.99173 18.7675 10.2648 19.1064 10.5789 19.4208C11.2753 20.1181 12.3913 20.7903 13.6385 21.089C14.8752 21.3852 16.1853 21.3036 17.3437 20.5868C17.3552 20.5797 17.367 20.5724 17.3791 20.5649C17.4906 20.4955 17.6247 20.4122 17.7477 20.3634C17.9637 20.2777 18.1615 20.2478 18.3932 20.2657C18.5246 20.2759 18.6593 20.3112 18.7645 20.3388C18.775 20.3415 18.7852 20.3442 18.7951 20.3467C19.2451 20.4635 19.5461 20.5412 19.7748 20.5844C20.007 20.6282 20.0799 20.6182 20.0929 20.6156C20.3474 20.5637 20.547 20.3644 20.5991 20.1083C20.6018 20.0948 20.6117 20.0214 20.5679 19.7888C20.5248 19.5596 20.4472 19.2582 20.3305 18.8077C20.328 18.7978 20.3253 18.7876 20.3225 18.7771C20.295 18.6716 20.2598 18.5368 20.2497 18.4051C20.2319 18.1731 20.2622 17.9742 20.3482 17.758C20.3972 17.6348 20.4805 17.5012 20.5498 17.3902C20.5572 17.3782 20.5645 17.3665 20.5716 17.3551C21.2931 16.1927 21.3866 14.8949 21.099 13.6695C20.8088 12.4331 20.138 11.3139 19.4055 10.5804C19.116 10.2906 18.8058 10.0357 18.4798 9.81521Z" fill="#2D264B"/>
</svg>
