<svg width="24" height="24" viewBox="0 0 24 24" fill="none" xmlns="http://www.w3.org/2000/svg">
<path fill-rule="evenodd" clip-rule="evenodd" d="M7.70757 2.334C4.52097 1.72287 1.72335 4.5205 2.33449 7.70709L4.08914 16.8561C4.47056 18.845 5.97601 20.4355 7.93218 20.9409C11.8378 21.9498 15.4072 18.3277 14.2635 14.4386C14.2319 14.3312 14.3317 14.2314 14.4391 14.263C18.3282 15.4067 21.9503 11.8373 20.9414 7.93167C20.436 5.9755 18.8455 4.47005 16.8566 4.08863L7.70757 2.334ZM3.80764 7.42457C3.3962 5.27921 5.27968 3.39571 7.42504 3.80715L16.5741 5.56178C17.989 5.83313 19.1275 6.90741 19.489 8.30685C20.2116 11.104 17.6147 13.6334 14.8623 12.824C13.6159 12.4574 12.4579 13.6154 12.8244 14.8618C13.6339 17.6142 11.1045 20.2111 8.30735 19.4885C6.90792 19.127 5.83364 17.9885 5.56229 16.5736L3.80764 7.42457Z" fill="#2D264B"/>
</svg>
