<svg width="24" height="24" viewBox="0 0 24 24" fill="none" xmlns="http://www.w3.org/2000/svg">
<path fill-rule="evenodd" clip-rule="evenodd" d="M14.1792 3.6012C13.0784 2.17118 10.9218 2.17118 9.82096 3.6012L6.95632 7.32248C5.56428 9.1308 6.85338 11.75 9.13543 11.75L11.2501 11.75L11.2501 22C11.2501 22.4142 11.5859 22.75 12.0001 22.75C12.4143 22.75 12.7501 22.4142 12.7501 22L12.7501 11.75H14.8647C17.1468 11.75 18.4359 9.1308 17.0438 7.32248L14.1792 3.6012ZM11.0096 4.51619C11.51 3.86618 12.4902 3.86618 12.9906 4.51619L15.8552 8.23747C16.488 9.05944 15.902 10.25 14.8647 10.25L9.13543 10.25C8.09814 10.25 7.51218 9.05944 8.14493 8.23747L11.0096 4.51619Z" fill="#2D264B"/>
</svg>
