<svg width="40" height="40" viewBox="0 0 40 40" fill="none" xmlns="http://www.w3.org/2000/svg">
<path fill-rule="evenodd" clip-rule="evenodd" d="M24.6347 32.8342C28.4843 27.9252 33.3334 20.7933 33.3334 16.0146C33.3334 8.09049 27.3639 1.66675 20.0001 1.66675C12.6363 1.66675 6.66675 8.09049 6.66675 16.0146C6.66675 20.7933 11.5158 27.9252 15.3654 32.8342C17.3738 35.3953 18.378 36.6759 20.0001 36.6759C21.6221 36.6759 22.6263 35.3953 24.6347 32.8342ZM25.9734 14.1177C26.4066 13.5801 26.3219 12.7932 25.7844 12.3601C25.2468 11.9269 24.4599 12.0116 24.0267 12.5491L20.6576 16.7304C19.9658 17.589 19.5293 18.1259 19.166 18.4652C18.9953 18.6246 18.8862 18.6955 18.8236 18.7269C18.7769 18.7502 18.7602 18.7501 18.7513 18.7501H18.7489C18.7399 18.7501 18.7233 18.7502 18.6766 18.7269C18.6139 18.6955 18.5049 18.6246 18.3342 18.4652C17.9709 18.1259 17.5344 17.589 16.8426 16.7304L15.9734 15.6518C15.5403 15.1142 14.7534 15.0295 14.2158 15.4627C13.6782 15.8958 13.5936 16.6828 14.0267 17.2203L14.9502 18.3664C15.5711 19.137 16.1188 19.8169 16.6278 20.2923C17.1744 20.8027 17.8539 21.2501 18.7501 21.2501C19.6463 21.2501 20.3258 20.8027 20.8723 20.2923C21.3814 19.8169 21.9291 19.1371 22.5499 18.3664L25.9734 14.1177Z" fill="#2D264B"/>
</svg>
